<?xml version="1.0" encoding="UTF-8"?>
<svg xmlns="http://www.w3.org/2000/svg" xmlns:xlink="http://www.w3.org/1999/xlink" width="px" height="px" viewBox="0 0 250 250" version="1.1">
<g id="surface1">
<path style=" stroke:none;fill-rule:nonzero;fill:rgb(13.72549%,9.411765%,8.235294%);fill-opacity:1;" d="M 146.238281 70.5 C 145.957031 71.042969 145.8125 71.644531 145.816406 72.253906 C 145.816406 71.601562 145.789062 70.953125 145.753906 70.308594 Z M 146.238281 70.5 "/>
<path style=" stroke:none;fill-rule:nonzero;fill:rgb(13.72549%,9.411765%,8.235294%);fill-opacity:1;" d="M 67.773438 89.378906 C 68.316406 90.574219 68.921875 91.746094 69.578125 92.878906 C 67.75 94.859375 66.183594 97.066406 64.921875 99.445312 C 64.421875 98.726562 63.949219 97.996094 63.488281 97.238281 C 63.203125 96.769531 62.933594 96.296875 62.664062 95.816406 C 64.101562 93.472656 65.816406 91.308594 67.773438 89.378906 Z M 67.773438 89.378906 "/>
<path style=" stroke:none;fill-rule:nonzero;fill:rgb(13.72549%,9.411765%,8.235294%);fill-opacity:1;" d="M 145.308594 66.183594 C 145.523438 67.546875 145.671875 68.925781 145.753906 70.324219 C 130.839844 64.691406 113.996094 69.285156 104 81.703125 L 103 80.789062 C 102.175781 80.535156 101.34375 80.320312 100.5 80.128906 C 109.859375 68.105469 125.101562 62.238281 140.109375 64.890625 C 141.871094 65.195312 143.609375 65.628906 145.308594 66.183594 Z M 145.308594 66.183594 "/>
<path style=" stroke:none;fill-rule:nonzero;fill:rgb(13.72549%,9.411765%,8.235294%);fill-opacity:1;" d="M 171.535156 92.898438 L 168.914062 90.28125 C 169.546875 90.414062 170.164062 90.578125 170.78125 90.753906 C 171.046875 91.464844 171.304688 92.175781 171.535156 92.898438 Z M 171.535156 92.898438 "/>
<path style=" stroke:none;fill-rule:nonzero;fill:rgb(13.72549%,9.411765%,8.235294%);fill-opacity:1;" d="M 63.5 97.25 C 63.960938 98.003906 64.441406 98.75 64.929688 99.453125 C 59.824219 109.097656 60.144531 120.710938 65.773438 130.0625 C 71.402344 139.410156 81.519531 145.125 92.429688 145.125 L 96.050781 145.125 C 96.050781 147.015625 94.859375 148.90625 92.429688 148.875 C 83.644531 148.820312 75.195312 145.503906 68.71875 139.570312 C 57.074219 128.859375 54.304688 111.003906 61.890625 97.175781 C 62.140625 96.71875 62.390625 96.265625 62.671875 95.824219 C 62.933594 96.304688 63.203125 96.78125 63.5 97.25 Z M 63.5 97.25 "/>
<path style=" stroke:none;fill-rule:nonzero;fill:rgb(13.72549%,9.411765%,8.235294%);fill-opacity:1;" d="M 145.753906 70.324219 C 145.789062 70.96875 145.808594 71.613281 145.816406 72.269531 C 145.820312 72.925781 145.78125 73.695312 145.738281 74.40625 C 143.519531 73.4375 141.203125 72.714844 138.828125 72.25 C 125.960938 69.75 112.574219 75.53125 105.25 86.300781 C 104.328125 87.65625 102.683594 88.535156 101.015625 88.023438 C 93.570312 85.726562 85.589844 86.355469 78.800781 90.269531 C 76.121094 91.816406 73.730469 93.8125 71.726562 96.164062 C 70.953125 95.101562 70.226562 94.011719 69.578125 92.890625 C 77.820312 83.992188 90.46875 80.675781 102.015625 84.390625 C 102.636719 83.460938 103.300781 82.558594 104.015625 81.691406 C 114.011719 69.265625 130.863281 64.671875 145.78125 70.308594 Z M 145.753906 70.324219 "/>
<path style=" stroke:none;fill-rule:nonzero;fill:rgb(13.72549%,9.411765%,8.235294%);fill-opacity:1;" d="M 146.238281 70.5 C 148.585938 71.4375 150.828125 72.609375 152.933594 74 C 152.113281 75.621094 150.136719 76.195312 148.464844 75.738281 C 147.996094 75.480469 147.511719 75.238281 147.023438 75 C 146.234375 74.316406 145.792969 73.316406 145.816406 72.273438 C 145.808594 71.65625 145.953125 71.046875 146.238281 70.5 Z M 146.238281 70.5 "/>
<path style=" stroke:none;fill-rule:nonzero;fill:rgb(13.72549%,9.411765%,8.235294%);fill-opacity:1;" d="M 145.308594 66.183594 C 148.074219 67.082031 150.730469 68.289062 153.226562 69.78125 C 153.269531 70.519531 153.304688 71.28125 153.308594 72.011719 C 153.113281 68.09375 147.808594 67.601562 146.238281 70.511719 L 145.738281 70.320312 C 145.671875 68.921875 145.527344 67.546875 145.308594 66.183594 Z M 145.308594 66.183594 "/>
<path style=" stroke:none;fill-rule:nonzero;fill:rgb(13.72549%,9.411765%,8.235294%);fill-opacity:1;" d="M 103.820312 145.125 L 126.535156 145.125 C 126.527344 145.746094 126.378906 146.359375 126.105469 146.921875 L 118.179688 163 C 124.089844 157.035156 130.003906 151.070312 135.921875 145.109375 L 146.5 145.109375 C 133.578125 158.144531 120.660156 171.175781 107.734375 184.203125 C 107.042969 185.398438 105.640625 185.984375 104.304688 185.644531 C 101.90625 185.246094 99.964844 182.335938 101.515625 179.945312 L 116.871094 148.761719 L 107.550781 148.761719 C 105.539062 148.730469 103.902344 147.132812 103.820312 145.125 Z M 103.820312 145.125 "/>
<path style=" stroke:none;fill-rule:nonzero;fill:rgb(13.72549%,9.411765%,8.235294%);fill-opacity:1;" d="M 104.308594 143.136719 L 109.71875 133.910156 C 112.199219 129.671875 114.683594 125.433594 117.164062 121.199219 C 117.664062 120.359375 118.09375 119.496094 118.578125 118.699219 C 119.578125 117.054688 120.804688 115.730469 123.121094 115.644531 C 124.257812 115.613281 125.394531 115.585938 126.53125 115.566406 C 133.03125 115.460938 139.53125 115.644531 145.980469 115.644531 C 148.691406 115.644531 150.828125 118.878906 149.21875 121.289062 L 143.191406 130.289062 L 152.191406 130.289062 C 155.449219 130.289062 157.125 134.390625 154.839844 136.691406 L 148.875 142.691406 C 148.074219 143.496094 147.28125 144.300781 146.480469 145.101562 L 135.921875 145.101562 L 143.191406 137.769531 L 136.191406 137.769531 C 133.480469 137.769531 131.335938 134.535156 132.949219 132.125 L 138.980469 123.125 L 124.714844 123.125 L 114.09375 141.25 L 122.871094 141.25 C 123.875 141.246094 124.839844 141.65625 125.535156 142.382812 C 126.226562 143.113281 126.589844 144.09375 126.535156 145.101562 L 103.820312 145.101562 C 103.792969 144.410156 103.960938 143.730469 104.308594 143.136719 Z M 104.308594 143.136719 "/>
<path style=" stroke:none;fill-rule:nonzero;fill:rgb(13.72549%,9.411765%,8.235294%);fill-opacity:1;" d="M 148.464844 75.734375 C 150.136719 76.191406 152.113281 75.613281 152.933594 73.996094 C 153.039062 74.070312 153.148438 74.140625 153.261719 74.210938 C 153.191406 75.683594 153.050781 77.148438 152.851562 78.601562 C 151.464844 77.53125 150 76.574219 148.464844 75.734375 Z M 148.464844 75.734375 "/>
<path style=" stroke:none;fill-rule:nonzero;fill:rgb(13.72549%,9.411765%,8.235294%);fill-opacity:1;" d="M 103 80.789062 L 104 81.703125 C 103.304688 82.574219 102.636719 83.476562 102 84.40625 C 100.871094 84.042969 99.722656 83.742188 98.558594 83.511719 L 98.761719 82.511719 Z M 103 80.789062 "/>
<path style=" stroke:none;fill-rule:nonzero;fill:rgb(13.72549%,9.411765%,8.235294%);fill-opacity:1;" d="M 145.816406 72.269531 C 145.792969 73.3125 146.234375 74.3125 147.023438 74.996094 C 146.601562 74.789062 146.171875 74.589844 145.738281 74.40625 C 145.78125 73.695312 145.808594 73 145.816406 72.269531 Z M 145.816406 72.269531 "/>
<path style=" stroke:none;fill-rule:nonzero;fill:rgb(13.72549%,9.411765%,8.235294%);fill-opacity:1;" d="M 61.304688 114 C 61.300781 108.925781 62.539062 103.925781 64.921875 99.445312 C 65.730469 100.628906 66.589844 101.769531 67.488281 102.863281 C 64.890625 108.609375 64.359375 115.078125 65.988281 121.171875 C 69.226562 133.070312 80.15625 141.230469 92.410156 141.363281 C 94.804688 141.394531 96.011719 143.253906 96.03125 145.113281 L 92.410156 145.113281 C 75.230469 145.109375 61.304688 131.179688 61.304688 114 Z M 61.304688 114 "/>
<path style=" stroke:none;fill-rule:nonzero;fill:rgb(13.72549%,9.411765%,8.235294%);fill-opacity:1;" d="M 100.5 80.128906 C 101.335938 80.320312 102.164062 80.535156 103 80.789062 L 98.773438 82.5 C 99.335938 81.691406 99.910156 80.898438 100.5 80.128906 Z M 100.5 80.128906 "/>
<path style=" stroke:none;fill-rule:nonzero;fill:rgb(86.27451%,86.666667%,86.666667%);fill-opacity:1;" d="M 152.191406 130.296875 L 143.191406 130.296875 L 149.21875 121.296875 C 150.828125 118.886719 148.691406 115.648438 145.980469 115.648438 C 139.511719 115.648438 133.003906 115.464844 126.53125 115.570312 C 125.390625 115.589844 124.253906 115.617188 123.121094 115.648438 C 120.804688 115.734375 119.589844 117.058594 118.578125 118.703125 C 118.078125 119.496094 117.65625 120.359375 117.164062 121.203125 C 114.683594 125.4375 112.199219 129.675781 109.71875 133.914062 L 104.308594 143.140625 C 103.953125 143.742188 103.777344 144.4375 103.808594 145.140625 L 96.046875 145.140625 C 96.046875 143.28125 94.820312 141.421875 92.425781 141.390625 C 80.171875 141.253906 69.238281 133.09375 66.003906 121.195312 C 64.375 115.101562 64.90625 108.636719 67.503906 102.890625 C 68.585938 100.460938 70.015625 98.203125 71.738281 96.179688 C 73.746094 93.824219 76.136719 91.832031 78.816406 90.285156 C 85.605469 86.371094 93.585938 85.738281 101.03125 88.039062 C 102.699219 88.539062 104.34375 87.671875 105.265625 86.316406 C 112.589844 75.546875 125.976562 69.746094 138.84375 72.265625 C 141.21875 72.730469 143.535156 73.453125 145.753906 74.421875 C 146.183594 74.605469 146.613281 74.804688 147.039062 75.011719 C 147.464844 75.214844 148.011719 75.511719 148.480469 75.75 C 156.015625 79.871094 161.683594 86.726562 164.316406 94.90625 C 164.667969 96.179688 165.664062 97.171875 166.933594 97.523438 C 178.199219 99.96875 186.183594 110.398438 184.738281 122.023438 C 183.371094 133.074219 173.738281 141.230469 162.738281 141.375 C 160.351562 141.410156 159.144531 143.269531 159.121094 145.125 L 146.5 145.125 C 147.300781 144.324219 148.09375 143.519531 148.894531 142.714844 L 154.859375 136.714844 C 157.125 134.394531 155.449219 130.296875 152.191406 130.296875 Z M 152.191406 130.296875 "/>
<path style=" stroke:none;fill-rule:nonzero;fill:rgb(98.039216%,93.333333%,0%);fill-opacity:1;" d="M 138.960938 123.148438 L 132.929688 132.148438 C 131.316406 134.558594 133.460938 137.796875 136.171875 137.796875 L 143.171875 137.796875 L 135.898438 145.125 L 126.535156 145.125 C 126.589844 144.121094 126.226562 143.136719 125.535156 142.410156 C 124.839844 141.679688 123.875 141.269531 122.871094 141.273438 L 114.09375 141.273438 L 124.714844 123.148438 Z M 138.960938 123.148438 "/>
<path style=" stroke:none;fill-rule:nonzero;fill:rgb(13.72549%,9.411765%,8.235294%);fill-opacity:1;" d="M 69.578125 92.890625 C 70.234375 94.011719 70.953125 95.101562 71.726562 96.164062 C 70.003906 98.1875 68.578125 100.449219 67.5 102.875 C 66.601562 101.78125 65.738281 100.640625 64.929688 99.453125 C 66.191406 97.074219 67.753906 94.871094 69.578125 92.890625 Z M 69.578125 92.890625 "/>
<path style=" stroke:none;fill-rule:nonzero;fill:rgb(13.72549%,9.411765%,8.235294%);fill-opacity:1;" d="M 152.933594 74 C 153.15625 73.550781 153.285156 73.0625 153.308594 72.558594 C 153.308594 73.113281 153.285156 73.664062 153.261719 74.214844 C 153.148438 74.140625 153.039062 74.070312 152.933594 74 Z M 152.933594 74 "/>
<path style=" stroke:none;fill-rule:nonzero;fill:rgb(13.72549%,9.411765%,8.235294%);fill-opacity:1;" d="M 162.746094 145.125 C 176.035156 145.132812 187.167969 135.070312 188.503906 121.851562 C 189.839844 108.628906 180.941406 96.546875 167.921875 93.894531 C 165.414062 85.855469 160.242188 78.914062 153.261719 74.210938 C 153.285156 73.660156 153.304688 73.109375 153.308594 72.554688 L 153.308594 72.5 C 153.308594 72.429688 153.308594 72.359375 153.308594 72.289062 L 153.308594 72.253906 C 153.308594 72.164062 153.308594 72.078125 153.308594 71.996094 C 153.308594 71.246094 153.269531 70.496094 153.226562 69.765625 C 161.261719 74.59375 167.445312 81.980469 170.78125 90.738281 C 170.164062 90.566406 169.546875 90.398438 168.914062 90.265625 L 171.535156 92.886719 C 171.304688 92.160156 171.035156 91.449219 170.78125 90.738281 C 184.488281 94.679688 193.914062 108.316406 192.144531 122.691406 C 190.257812 137.53125 177.707031 148.703125 162.746094 148.859375 C 160.308594 148.894531 159.105469 147.003906 159.125 145.109375 Z M 162.746094 145.125 "/>
<path style=" stroke:none;fill-rule:nonzero;fill:rgb(13.72549%,9.411765%,8.235294%);fill-opacity:1;" d="M 69.578125 92.890625 C 68.921875 91.753906 68.316406 90.585938 67.773438 89.390625 C 76.402344 80.941406 88.726562 77.457031 100.5 80.128906 C 99.894531 80.898438 99.3125 81.695312 98.753906 82.515625 L 98.554688 83.515625 C 87.914062 81.363281 76.921875 84.921875 69.554688 92.894531 Z M 69.578125 92.890625 "/>
<path style=" stroke:none;fill-rule:nonzero;fill:rgb(13.72549%,9.411765%,8.235294%);fill-opacity:1;" d="M 146.238281 70.5 C 147.789062 67.585938 153.113281 68.078125 153.308594 72 C 153.308594 72.085938 153.308594 72.171875 153.308594 72.261719 L 153.308594 72.296875 C 153.308594 72.363281 153.308594 72.433594 153.308594 72.503906 L 153.308594 72.546875 C 153.285156 73.046875 153.15625 73.535156 152.933594 73.984375 C 150.828125 72.597656 148.585938 71.429688 146.238281 70.5 Z M 146.238281 70.5 "/>
<path style=" stroke:none;fill-rule:nonzero;fill:rgb(13.72549%,9.411765%,8.235294%);fill-opacity:1;" d="M 188.621094 119.253906 C 188.621094 133.542969 177.035156 145.128906 162.746094 145.125 L 159.125 145.125 C 159.125 143.269531 160.355469 141.410156 162.746094 141.375 C 173.746094 141.230469 183.355469 133.074219 184.746094 122.023438 C 186.191406 110.386719 178.203125 99.953125 166.941406 97.523438 C 165.667969 97.171875 164.671875 96.179688 164.320312 94.90625 C 162.25 88.4375 158.253906 82.753906 152.871094 78.613281 C 153.070312 77.164062 153.210938 75.699219 153.28125 74.226562 C 160.265625 78.925781 165.433594 85.871094 167.941406 93.910156 C 179.972656 96.378906 188.613281 106.96875 188.621094 119.253906 Z M 188.621094 119.253906 "/>
<path style=" stroke:none;fill-rule:nonzero;fill:rgb(98.039216%,93.333333%,0%);fill-opacity:1;" d="M 135.921875 145.125 C 130.007812 151.089844 124.09375 157.046875 118.179688 163 L 126.105469 146.90625 C 126.378906 146.347656 126.527344 145.734375 126.535156 145.109375 Z M 135.921875 145.125 "/>
<path style="fill:none;stroke-width:1;stroke-linecap:butt;stroke-linejoin:miter;stroke:rgb(13.72549%,9.411765%,8.235294%);stroke-opacity:1;stroke-miterlimit:10;" d="M 125.328125 191.648438 C 124.789062 192.53125 124.273438 193.4375 123.773438 194.351562 C 108.601562 222.007812 114.140625 257.71875 137.429688 279.140625 C 150.382812 291.007812 167.28125 297.640625 184.851562 297.75 C 189.710938 297.8125 192.117188 294.03125 192.09375 290.25 " transform="matrix(0.5,0,0,0.5,0,0)"/>
<path style="fill:none;stroke-width:1;stroke-linecap:butt;stroke-linejoin:miter;stroke:rgb(13.72549%,9.411765%,8.235294%);stroke-opacity:1;stroke-miterlimit:10;" d="M 201 160.257812 C 177.445312 154.890625 152.773438 161.859375 135.507812 178.757812 " transform="matrix(0.5,0,0,0.5,0,0)"/>
<path style="fill:none;stroke-width:1;stroke-linecap:butt;stroke-linejoin:miter;stroke:rgb(13.72549%,9.411765%,8.235294%);stroke-opacity:1;stroke-miterlimit:10;" d="M 290.617188 132.367188 C 287.234375 131.265625 283.773438 130.398438 280.257812 129.78125 C 250.234375 124.460938 219.726562 136.195312 201 160.257812 " transform="matrix(0.5,0,0,0.5,0,0)"/>
<path style="fill:none;stroke-width:1;stroke-linecap:butt;stroke-linejoin:miter;stroke:rgb(13.72549%,9.411765%,8.235294%);stroke-opacity:1;stroke-miterlimit:10;" d="M 318.25 290.25 C 318.25 294.039062 320.617188 297.820312 325.492188 297.75 C 355.414062 297.4375 380.515625 275.09375 384.289062 245.40625 C 387.828125 216.65625 368.976562 189.40625 341.5625 181.507812 " transform="matrix(0.5,0,0,0.5,0,0)"/>
<path style="fill:none;stroke-width:1;stroke-linecap:butt;stroke-linejoin:miter;stroke:rgb(13.72549%,9.411765%,8.235294%);stroke-opacity:1;stroke-miterlimit:10;" d="M 341.5625 181.507812 C 334.890625 163.984375 322.523438 149.21875 306.453125 139.5625 " transform="matrix(0.5,0,0,0.5,0,0)"/>
<path style="fill:none;stroke-width:1;stroke-linecap:butt;stroke-linejoin:miter;stroke:rgb(13.72549%,9.411765%,8.235294%);stroke-opacity:1;stroke-miterlimit:10;" d="M 341.5625 181.507812 C 342.09375 182.929688 342.5625 184.351562 343.070312 185.796875 L 337.828125 180.5625 C 339.09375 180.828125 340.328125 181.15625 341.5625 181.507812 Z M 341.5625 181.507812 " transform="matrix(0.5,0,0,0.5,0,0)"/>
<path style="fill:none;stroke-width:1;stroke-linecap:butt;stroke-linejoin:miter;stroke:rgb(13.72549%,9.411765%,8.235294%);stroke-opacity:1;stroke-miterlimit:10;" d="M 206 161.578125 C 204.351562 161.070312 202.6875 160.640625 201 160.257812 C 199.789062 161.796875 198.625 163.390625 197.507812 165.03125 Z M 206 161.578125 " transform="matrix(0.5,0,0,0.5,0,0)"/>
<path style="fill:none;stroke-width:1;stroke-linecap:butt;stroke-linejoin:miter;stroke:rgb(13.72549%,9.411765%,8.235294%);stroke-opacity:1;stroke-miterlimit:10;" d="M 306.617188 144 C 306.617188 142.5 306.539062 141 306.453125 139.539062 C 301.460938 136.5625 296.148438 134.148438 290.617188 132.351562 C 291.046875 135.070312 291.34375 137.828125 291.507812 140.632812 " transform="matrix(0.5,0,0,0.5,0,0)"/>
<path style="fill:none;stroke-width:1;stroke-linecap:butt;stroke-linejoin:miter;stroke:rgb(13.72549%,9.411765%,8.235294%);stroke-opacity:1;stroke-miterlimit:10;" d="M 292.476562 141 C 295.578125 135.171875 306.226562 136.15625 306.617188 144 " transform="matrix(0.5,0,0,0.5,0,0)"/>
<path style="fill:none;stroke-width:1;stroke-linecap:butt;stroke-linejoin:miter;stroke:rgb(13.72549%,9.411765%,8.235294%);stroke-opacity:1;stroke-miterlimit:10;" d="M 139.15625 185.78125 C 137.84375 183.507812 136.632812 181.171875 135.546875 178.78125 C 131.632812 182.648438 128.203125 186.976562 125.328125 191.671875 C 125.867188 192.671875 126.40625 193.578125 126.976562 194.523438 C 127.898438 196.03125 128.859375 197.523438 129.84375 198.929688 " transform="matrix(0.5,0,0,0.5,0,0)"/>
<path style="fill:none;stroke-width:1;stroke-linecap:butt;stroke-linejoin:miter;stroke:rgb(13.72549%,9.411765%,8.235294%);stroke-opacity:1;stroke-miterlimit:10;" d="M 306.617188 144 C 306.617188 144.171875 306.617188 144.34375 306.617188 144.523438 L 306.617188 144.59375 " transform="matrix(0.5,0,0,0.5,0,0)"/>
<path style="fill:none;stroke-width:1;stroke-linecap:butt;stroke-linejoin:miter;stroke:rgb(13.72549%,9.411765%,8.235294%);stroke-opacity:1;stroke-miterlimit:10;" d="M 306.617188 145 C 306.617188 144.859375 306.617188 144.71875 306.617188 144.578125 " transform="matrix(0.5,0,0,0.5,0,0)"/>
<path style="fill:none;stroke-width:1;stroke-linecap:butt;stroke-linejoin:miter;stroke:rgb(13.72549%,9.411765%,8.235294%);stroke-opacity:1;stroke-miterlimit:10;" d="M 306.617188 145 L 306.617188 145.078125 " transform="matrix(0.5,0,0,0.5,0,0)"/>
<path style="fill:none;stroke-width:1;stroke-linecap:butt;stroke-linejoin:miter;stroke:rgb(13.72549%,9.411765%,8.235294%);stroke-opacity:1;stroke-miterlimit:10;" d="M 306.523438 148.421875 C 306.570312 147.320312 306.609375 146.21875 306.617188 145.109375 " transform="matrix(0.5,0,0,0.5,0,0)"/>
<path style="fill:none;stroke-width:1;stroke-linecap:butt;stroke-linejoin:miter;stroke:rgb(13.72549%,9.411765%,8.235294%);stroke-opacity:1;stroke-miterlimit:10;" d="M 305.703125 157.203125 C 316.46875 165.476562 324.460938 176.84375 328.601562 189.78125 C 329.304688 192.328125 331.296875 194.3125 333.84375 195.023438 C 356.367188 199.90625 372.34375 220.773438 369.453125 244.023438 C 366.710938 266.117188 347.453125 282.429688 325.453125 282.71875 C 320.671875 282.789062 318.257812 286.507812 318.210938 290.21875 L 325.453125 290.21875 C 352.023438 290.234375 374.296875 270.117188 376.96875 243.671875 C 379.632812 217.226562 361.84375 193.0625 335.796875 187.757812 C 330.789062 171.679688 320.445312 157.796875 306.476562 148.390625 " transform="matrix(0.5,0,0,0.5,0,0)"/>
<path style="fill:none;stroke-width:1;stroke-linecap:butt;stroke-linejoin:miter;stroke:rgb(13.72549%,9.411765%,8.235294%);stroke-opacity:1;stroke-miterlimit:10;" d="M 291.507812 140.648438 C 261.679688 129.382812 227.992188 138.570312 208 163.40625 C 206.609375 165.148438 205.273438 166.953125 204 168.8125 C 201.742188 168.085938 199.445312 167.484375 197.117188 167.023438 C 175.835938 162.71875 153.851562 169.828125 139.117188 185.78125 " transform="matrix(0.5,0,0,0.5,0,0)"/>
<path style="fill:none;stroke-width:1;stroke-linecap:butt;stroke-linejoin:miter;stroke:rgb(13.72549%,9.411765%,8.235294%);stroke-opacity:1;stroke-miterlimit:10;" d="M 143.453125 192.328125 C 147.460938 187.625 152.242188 183.632812 157.601562 180.539062 C 171.179688 172.710938 187.140625 171.453125 202.03125 176.046875 C 205.367188 177.046875 208.65625 175.3125 210.5 172.601562 C 225.148438 151.0625 251.921875 139.460938 277.65625 144.5 C 282.40625 145.429688 287.039062 146.875 291.476562 148.8125 " transform="matrix(0.5,0,0,0.5,0,0)"/>
<path style="fill:none;stroke-width:1;stroke-linecap:butt;stroke-linejoin:miter;stroke:rgb(13.72549%,9.411765%,8.235294%);stroke-opacity:1;stroke-miterlimit:10;" d="M 129.84375 198.90625 C 119.632812 218.195312 120.273438 241.421875 131.53125 260.125 C 142.789062 278.820312 163.015625 290.25 184.84375 290.25 L 192.078125 290.25 C 192.078125 286.53125 189.632812 282.8125 184.84375 282.75 C 160.328125 282.476562 138.46875 266.15625 132 242.359375 C 128.742188 230.179688 129.804688 217.242188 135 205.75 " transform="matrix(0.5,0,0,0.5,0,0)"/>
<path style="fill:none;stroke-width:1;stroke-linecap:butt;stroke-linejoin:miter;stroke:rgb(13.72549%,9.411765%,8.235294%);stroke-opacity:1;stroke-miterlimit:10;" d="M 305.867188 148 C 301.65625 145.21875 297.171875 142.875 292.476562 141 " transform="matrix(0.5,0,0,0.5,0,0)"/>
<path style="fill:none;stroke-width:1;stroke-linecap:butt;stroke-linejoin:miter;stroke:rgb(13.72549%,9.411765%,8.235294%);stroke-opacity:1;stroke-miterlimit:10;" d="M 294.046875 150 C 295.046875 150.46875 295.992188 151 296.929688 151.476562 " transform="matrix(0.5,0,0,0.5,0,0)"/>
<path style="fill:none;stroke-width:1;stroke-linecap:butt;stroke-linejoin:miter;stroke:rgb(13.72549%,9.411765%,8.235294%);stroke-opacity:1;stroke-miterlimit:10;" d="M 139.15625 185.78125 C 135.5 189.734375 132.367188 194.148438 129.84375 198.90625 C 131.460938 201.28125 133.179688 203.5625 134.976562 205.75 C 137.148438 200.890625 140 196.375 143.453125 192.328125 C 141.90625 190.203125 140.46875 188 139.15625 185.78125 Z M 139.15625 185.78125 " transform="matrix(0.5,0,0,0.5,0,0)"/>
<path style="fill:none;stroke-width:1;stroke-linecap:butt;stroke-linejoin:miter;stroke:rgb(13.72549%,9.411765%,8.235294%);stroke-opacity:1;stroke-miterlimit:10;" d="M 292.476562 141 L 291.476562 140.617188 C 291.546875 141.90625 291.59375 143.203125 291.601562 144.507812 C 291.601562 143.289062 291.90625 142.078125 292.476562 141 Z M 292.476562 141 " transform="matrix(0.5,0,0,0.5,0,0)"/>
<path style="fill:none;stroke-width:1;stroke-linecap:butt;stroke-linejoin:miter;stroke:rgb(13.72549%,9.411765%,8.235294%);stroke-opacity:1;stroke-miterlimit:10;" d="M 291.632812 144.539062 C 291.632812 145.960938 291.5625 147.390625 291.476562 148.8125 C 292.34375 149.179688 293.203125 149.578125 294.046875 149.992188 C 292.46875 148.625 291.585938 146.625 291.632812 144.539062 Z M 291.632812 144.539062 " transform="matrix(0.5,0,0,0.5,0,0)"/>
<path style="fill:none;stroke-width:1;stroke-linecap:butt;stroke-linejoin:miter;stroke:rgb(13.72549%,9.411765%,8.235294%);stroke-opacity:1;stroke-miterlimit:10;" d="M 296.929688 151.46875 C 300 153.148438 302.929688 155.0625 305.703125 157.203125 C 306.101562 154.296875 306.382812 151.367188 306.523438 148.421875 C 306.296875 148.28125 306.078125 148.140625 305.867188 147.992188 C 304.226562 151.226562 300.273438 152.382812 296.929688 151.46875 Z M 296.929688 151.46875 " transform="matrix(0.5,0,0,0.5,0,0)"/>
<path style="fill:none;stroke-width:1;stroke-linecap:butt;stroke-linejoin:miter;stroke:rgb(13.72549%,9.411765%,8.235294%);stroke-opacity:1;stroke-miterlimit:10;" d="M 293 290.25 C 294.601562 288.648438 296.1875 287.039062 297.789062 285.429688 L 309.71875 273.429688 C 314.289062 268.828125 310.9375 260.632812 304.421875 260.632812 L 286.421875 260.632812 L 298.476562 242.632812 C 301.703125 237.8125 297.421875 231.34375 292 231.34375 C 279.0625 231.34375 266.046875 230.96875 253.101562 231.179688 C 250.820312 231.21875 248.546875 231.273438 246.28125 231.34375 C 241.648438 231.507812 239.21875 234.15625 237.203125 237.453125 C 236.203125 239.03125 235.351562 240.757812 234.367188 242.453125 C 229.40625 250.914062 224.4375 259.390625 219.476562 267.867188 L 208.65625 286.320312 C 207.945312 287.53125 207.59375 288.914062 207.65625 290.320312 C 207.804688 294.351562 211.085938 297.5625 215.117188 297.617188 L 233.71875 297.617188 L 203 359.921875 C 199.898438 364.703125 203.78125 370.523438 208.578125 371.320312 C 211.25 372 214.054688 370.820312 215.4375 368.4375 C 241.273438 342.382812 267.125 316.320312 293 290.25 Z M 293 290.25 " transform="matrix(0.5,0,0,0.5,0,0)"/>
<path style="fill:none;stroke-width:1;stroke-linecap:butt;stroke-linejoin:miter;stroke:rgb(13.72549%,9.411765%,8.235294%);stroke-opacity:1;stroke-miterlimit:10;" d="M 271.84375 290.25 C 260.015625 302.179688 248.1875 314.09375 236.359375 326 L 252.210938 293.8125 C 252.757812 292.695312 253.054688 291.46875 253.070312 290.21875 C 253.179688 288.210938 252.453125 286.242188 251.070312 284.789062 C 249.679688 283.328125 247.75 282.507812 245.742188 282.523438 L 228.1875 282.523438 L 249.429688 246.273438 L 277.921875 246.273438 L 265.859375 264.273438 C 262.632812 269.09375 266.921875 275.5625 272.34375 275.5625 L 286.34375 275.5625 Z M 271.84375 290.25 " transform="matrix(0.5,0,0,0.5,0,0)"/>
</g>
</svg>
