<?xml version="1.0" encoding="UTF-8"?>
<svg xmlns="http://www.w3.org/2000/svg" xmlns:xlink="http://www.w3.org/1999/xlink" width="px" height="px" viewBox="0 0 250 250" version="1.1">
<g id="surface1">
<path style="fill-rule:nonzero;fill:rgb(97.254902%,71.372549%,17.647059%);fill-opacity:1;stroke-width:1;stroke-linecap:butt;stroke-linejoin:miter;stroke:rgb(13.72549%,9.411765%,8.235294%);stroke-opacity:1;stroke-miterlimit:10;" d="M 236.75 272.109375 C 255.476562 248.054688 285.976562 236.328125 316 241.640625 C 319.507812 242.257812 322.96875 243.125 326.359375 244.226562 C 321.007812 210.234375 295.140625 183.117188 261.4375 176.148438 C 228.109375 169.398438 193.171875 185 175.640625 214 C 161.757812 237.273438 160.109375 265.867188 171.226562 290.578125 C 171.703125 290.117188 172.171875 289.65625 172.648438 289.210938 C 189.835938 273.1875 213.867188 266.773438 236.75 272.109375 Z M 236.75 272.109375 " transform="matrix(0.5,0,0,0.5,0,0)"/>
<path style="fill-rule:nonzero;fill:rgb(13.72549%,9.411765%,8.235294%);fill-opacity:1;stroke-width:1;stroke-linecap:butt;stroke-linejoin:miter;stroke:rgb(13.72549%,9.411765%,8.235294%);stroke-opacity:1;stroke-miterlimit:10;" d="M 171.226562 290.578125 C 160.109375 265.867188 161.757812 237.273438 175.640625 214 C 193.179688 185.046875 228.117188 169.398438 261.398438 176.140625 C 295.101562 183.101562 320.96875 210.226562 326.320312 244.21875 C 331.851562 246.023438 337.164062 248.429688 342.15625 251.40625 C 339.84375 212.585938 314.78125 178.804688 278.296875 165.320312 C 240.609375 151.5 196.398438 163.703125 171.03125 194.75 C 146.03125 225.351562 141.773438 269.046875 161.03125 303.546875 C 163.890625 298.828125 167.3125 294.46875 171.226562 290.578125 Z M 171.226562 290.578125 " transform="matrix(0.5,0,0,0.5,0,0)"/>
<path style="fill-rule:nonzero;fill:rgb(13.72549%,9.411765%,8.235294%);fill-opacity:1;stroke-width:1;stroke-linecap:butt;stroke-linejoin:miter;stroke:rgb(13.72549%,9.411765%,8.235294%);stroke-opacity:1;stroke-miterlimit:10;" d="M 253.070312 131.539062 L 253.070312 97.890625 C 253.070312 88.242188 238.070312 88.21875 238.070312 97.890625 L 238.070312 131.539062 C 238.070312 141.1875 253.070312 141.210938 253.070312 131.539062 Z M 245.570312 97.890625 Z M 245.570312 97.890625 " transform="matrix(0.5,0,0,0.5,0,0)"/>
<path style="fill-rule:nonzero;fill:rgb(13.72549%,9.411765%,8.235294%);fill-opacity:1;stroke-width:1;stroke-linecap:butt;stroke-linejoin:miter;stroke:rgb(13.72549%,9.411765%,8.235294%);stroke-opacity:1;stroke-miterlimit:10;" d="M 176.65625 152.046875 C 181.492188 160.40625 194.453125 152.859375 189.65625 144.476562 L 172.828125 115.328125 C 168 106.96875 155.039062 114.523438 159.828125 122.898438 Z M 183.140625 148.257812 L 166.3125 119.109375 Z M 183.140625 148.257812 " transform="matrix(0.5,0,0,0.5,0,0)"/>
<path style="fill-rule:nonzero;fill:rgb(13.72549%,9.411765%,8.235294%);fill-opacity:1;stroke-width:1;stroke-linecap:butt;stroke-linejoin:miter;stroke:rgb(13.72549%,9.411765%,8.235294%);stroke-opacity:1;stroke-miterlimit:10;" d="M 141.21875 187.492188 L 112.070312 170.65625 C 103.703125 165.820312 96.132812 178.78125 104.5 183.65625 L 133.648438 200.492188 C 142 205.28125 149.59375 192.320312 141.21875 187.492188 Z M 108.289062 177.140625 L 137.4375 194 Z M 108.289062 177.140625 " transform="matrix(0.5,0,0,0.5,0,0)"/>
<path style="fill-rule:nonzero;fill:rgb(13.72549%,9.411765%,8.235294%);fill-opacity:1;stroke-width:1;stroke-linecap:butt;stroke-linejoin:miter;stroke:rgb(13.72549%,9.411765%,8.235294%);stroke-opacity:1;stroke-miterlimit:10;" d="M 87.0625 263.898438 L 120.710938 263.898438 C 130.359375 263.898438 130.382812 248.898438 120.710938 248.898438 L 87.0625 248.898438 C 77.398438 248.898438 77.390625 263.898438 87.0625 263.898438 Z M 120.710938 256.398438 Z M 120.710938 256.398438 " transform="matrix(0.5,0,0,0.5,0,0)"/>
<path style="fill-rule:nonzero;fill:rgb(13.72549%,9.411765%,8.235294%);fill-opacity:1;stroke-width:1;stroke-linecap:butt;stroke-linejoin:miter;stroke:rgb(13.72549%,9.411765%,8.235294%);stroke-opacity:1;stroke-miterlimit:10;" d="M 112.078125 342.132812 L 141.226562 325.296875 C 149.59375 320.46875 142.039062 307.507812 133.65625 312.296875 L 104.507812 329.132812 C 96.148438 334 103.6875 347 112.078125 342.132812 Z M 137.4375 318.828125 L 108.289062 335.65625 Z M 137.4375 318.828125 " transform="matrix(0.5,0,0,0.5,0,0)"/>
<path style="fill-rule:nonzero;fill:rgb(13.72549%,9.411765%,8.235294%);fill-opacity:1;stroke-width:1;stroke-linecap:butt;stroke-linejoin:miter;stroke:rgb(13.72549%,9.411765%,8.235294%);stroke-opacity:1;stroke-miterlimit:10;" d="M 370.421875 263.898438 L 404.070312 263.898438 C 413.71875 263.898438 413.742188 248.898438 404.070312 248.898438 L 370.421875 248.898438 C 360.773438 248.898438 360.75 263.898438 370.421875 263.898438 Z M 370.421875 256.398438 Z M 370.421875 256.398438 " transform="matrix(0.5,0,0,0.5,0,0)"/>
<path style="fill-rule:nonzero;fill:rgb(13.72549%,9.411765%,8.235294%);fill-opacity:1;stroke-width:1;stroke-linecap:butt;stroke-linejoin:miter;stroke:rgb(13.72549%,9.411765%,8.235294%);stroke-opacity:1;stroke-miterlimit:10;" d="M 357.476562 200.4375 L 386.632812 183.609375 C 394.992188 178.78125 387.4375 165.820312 379.0625 170.609375 L 349.90625 187.4375 C 341.546875 192.320312 349.101562 205.28125 357.476562 200.4375 Z M 382.84375 177.140625 L 353.703125 194 Z M 382.84375 177.140625 " transform="matrix(0.5,0,0,0.5,0,0)"/>
<path style="fill-rule:nonzero;fill:rgb(13.72549%,9.411765%,8.235294%);fill-opacity:1;stroke-width:1;stroke-linecap:butt;stroke-linejoin:miter;stroke:rgb(13.72549%,9.411765%,8.235294%);stroke-opacity:1;stroke-miterlimit:10;" d="M 314.46875 152.046875 L 331.296875 122.898438 C 336.140625 114.53125 323.179688 106.960938 318.296875 115.328125 L 301.46875 144.476562 C 296.679688 152.859375 309.640625 160.421875 314.46875 152.046875 Z M 324.820312 119.117188 L 308 148.273438 Z M 324.820312 119.117188 " transform="matrix(0.5,0,0,0.5,0,0)"/>
<path style="fill-rule:nonzero;fill:rgb(13.72549%,9.411765%,8.235294%);fill-opacity:1;stroke-width:1;stroke-linecap:butt;stroke-linejoin:miter;stroke:rgb(13.72549%,9.411765%,8.235294%);stroke-opacity:1;stroke-miterlimit:10;" d="M 377.25 293.367188 C 377.789062 294.78125 378.296875 296.210938 378.757812 297.65625 C 379.21875 298.976562 379.273438 300.398438 378.921875 301.75 C 402.507812 310.351562 416.523438 334.648438 412.15625 359.375 C 407.789062 384.101562 386.296875 402.125 361.1875 402.117188 L 220.539062 402.117188 C 198.710938 402.125 178.484375 390.6875 167.226562 371.992188 C 155.96875 353.289062 155.328125 330.0625 165.539062 310.773438 C 164.539062 309.328125 163.59375 307.867188 162.679688 306.367188 C 162.117188 305.4375 161.578125 304.5 161.0625 303.5625 C 152.421875 317.96875 149.148438 334.96875 151.828125 351.5625 C 155.625 373.875 170.007812 392.953125 190.40625 402.75 C 202.09375 408.21875 214.1875 409.609375 226.859375 409.609375 L 350.3125 409.609375 C 360.109375 409.609375 369.8125 409.890625 379.3125 406.789062 C 403.9375 398.726562 421.15625 374.960938 420.4375 348.921875 C 419.570312 323.007812 402.148438 300.59375 377.25 293.367188 Z M 377.25 293.367188 " transform="matrix(0.5,0,0,0.5,0,0)"/>
<path style="fill-rule:nonzero;fill:rgb(13.72549%,9.411765%,8.235294%);fill-opacity:1;stroke-width:1;stroke-linecap:butt;stroke-linejoin:miter;stroke:rgb(13.72549%,9.411765%,8.235294%);stroke-opacity:1;stroke-miterlimit:10;" d="M 220.539062 277.648438 C 227.054688 277.640625 233.523438 278.648438 239.71875 280.648438 C 258.75 252.023438 295.039062 240.34375 327.203125 252.492188 C 327.046875 249.710938 326.75 246.945312 326.3125 244.203125 C 322.9375 243.109375 319.492188 242.25 316 241.640625 C 285.992188 236.34375 255.507812 248.0625 236.789062 272.109375 C 238.460938 272.492188 240.109375 272.929688 241.789062 273.4375 L 233.320312 276.890625 C 234.4375 275.25 235.609375 273.65625 236.820312 272.109375 C 213.9375 266.773438 189.898438 273.1875 172.710938 289.210938 C 172.226562 289.65625 171.710938 290.117188 171.289062 290.59375 C 172.382812 293 173.59375 295.359375 174.921875 297.648438 C 186.664062 284.90625 203.210938 277.65625 220.539062 277.648438 Z M 220.539062 277.648438 " transform="matrix(0.5,0,0,0.5,0,0)"/>
<path style="fill-rule:nonzero;fill:rgb(13.72549%,9.411765%,8.235294%);fill-opacity:1;stroke-width:1;stroke-linecap:butt;stroke-linejoin:miter;stroke:rgb(13.72549%,9.411765%,8.235294%);stroke-opacity:1;stroke-miterlimit:10;" d="M 241.71875 273.4375 C 240.070312 272.929688 238.421875 272.492188 236.71875 272.109375 C 235.507812 273.65625 234.34375 275.25 233.21875 276.890625 Z M 241.71875 273.4375 " transform="matrix(0.5,0,0,0.5,0,0)"/>
<path style="fill-rule:nonzero;fill:rgb(13.72549%,9.411765%,8.235294%);fill-opacity:1;stroke-width:1;stroke-linecap:butt;stroke-linejoin:miter;stroke:rgb(13.72549%,9.411765%,8.235294%);stroke-opacity:1;stroke-miterlimit:10;" d="M 342.21875 260.28125 C 354.101562 268.289062 363.40625 279.570312 369 292.757812 C 370.4375 292.179688 372.015625 292.054688 373.523438 292.40625 C 374.78125 292.679688 376.023438 293.007812 377.25 293.40625 C 370.585938 275.875 358.226562 261.078125 342.148438 251.40625 C 342.25 253.0625 342.320312 254.71875 342.328125 256.40625 C 342.320312 257.703125 342.28125 259 342.21875 260.28125 Z M 342.21875 260.28125 " transform="matrix(0.5,0,0,0.5,0,0)"/>
<path style="fill-rule:nonzero;fill:rgb(13.72549%,9.411765%,8.235294%);fill-opacity:1;stroke-width:1;stroke-linecap:butt;stroke-linejoin:miter;stroke:rgb(13.72549%,9.411765%,8.235294%);stroke-opacity:1;stroke-miterlimit:10;" d="M 369 292.757812 C 369.960938 295.015625 370.804688 297.3125 371.53125 299.648438 C 374.039062 300.164062 376.515625 300.867188 378.921875 301.75 C 379.273438 300.398438 379.21875 298.976562 378.757812 297.65625 C 378.296875 296.210938 377.757812 294.789062 377.25 293.367188 C 376.023438 293.023438 374.78125 292.6875 373.523438 292.367188 C 372.007812 292.03125 370.429688 292.164062 369 292.757812 Z M 369 292.757812 " transform="matrix(0.5,0,0,0.5,0,0)"/>
<path style="fill-rule:nonzero;fill:rgb(13.72549%,9.411765%,8.235294%);fill-opacity:1;stroke-width:1;stroke-linecap:butt;stroke-linejoin:miter;stroke:rgb(13.72549%,9.411765%,8.235294%);stroke-opacity:1;stroke-miterlimit:10;" d="M 342.328125 256.398438 C 342.390625 248.109375 331.328125 246.9375 328.179688 252.898438 C 332.875 254.765625 337.359375 257.109375 341.570312 259.898438 C 342.101562 258.8125 342.367188 257.609375 342.328125 256.398438 Z M 342.328125 256.398438 " transform="matrix(0.5,0,0,0.5,0,0)"/>
<path style="fill-rule:nonzero;fill:rgb(13.72549%,9.411765%,8.235294%);fill-opacity:1;stroke-width:1;stroke-linecap:butt;stroke-linejoin:miter;stroke:rgb(13.72549%,9.411765%,8.235294%);stroke-opacity:1;stroke-miterlimit:10;" d="M 342.21875 260.28125 C 342.28125 258.992188 342.328125 257.6875 342.34375 256.390625 C 342.367188 257.585938 342.101562 258.773438 341.570312 259.851562 Z M 342.21875 260.28125 " transform="matrix(0.5,0,0,0.5,0,0)"/>
<path style="fill-rule:nonzero;fill:rgb(13.72549%,9.411765%,8.235294%);fill-opacity:1;stroke-width:1;stroke-linecap:butt;stroke-linejoin:miter;stroke:rgb(13.72549%,9.411765%,8.235294%);stroke-opacity:1;stroke-miterlimit:10;" d="M 165.539062 310.773438 C 168.0625 306.007812 171.195312 301.59375 174.859375 297.640625 C 173.53125 295.351562 172.320312 292.992188 171.226562 290.578125 C 167.320312 294.484375 163.90625 298.851562 161.0625 303.578125 C 161.59375 304.523438 162.117188 305.460938 162.679688 306.390625 C 163.59375 307.867188 164.5625 309.328125 165.539062 310.773438 Z M 165.539062 310.773438 " transform="matrix(0.5,0,0,0.5,0,0)"/>
<path style="fill-rule:nonzero;fill:rgb(13.72549%,9.411765%,8.235294%);fill-opacity:1;stroke-width:1;stroke-linecap:butt;stroke-linejoin:miter;stroke:rgb(13.72549%,9.411765%,8.235294%);stroke-opacity:1;stroke-miterlimit:10;" d="M 327.210938 252.507812 L 328.210938 252.890625 C 331.382812 246.890625 342.429688 248.101562 342.359375 256.390625 C 342.359375 254.71875 342.28125 253.0625 342.179688 251.390625 C 337.179688 248.414062 331.867188 246 326.34375 244.203125 C 326.773438 246.953125 327.0625 249.726562 327.210938 252.507812 Z M 327.210938 252.507812 " transform="matrix(0.5,0,0,0.5,0,0)"/>
<path style=" stroke:none;fill-rule:nonzero;fill:rgb(100%,100%,100%);fill-opacity:1;" d="M 202.679688 173.75 C 203.179688 183.28125 197.585938 192.390625 188.589844 195.835938 C 184.53125 197.390625 180.464844 197.308594 176.234375 197.308594 L 118.5 197.308594 C 115.761719 197.308594 113 197.335938 110.273438 197.308594 C 100.988281 197.324219 92.332031 192.628906 87.28125 184.835938 C 82.226562 177.046875 81.472656 167.226562 85.273438 158.753906 C 86.078125 156.917969 87.085938 155.179688 88.273438 153.566406 C 88.664062 153.039062 89.070312 152.535156 89.496094 152.066406 C 96.683594 143.71875 108.273438 140.71875 118.820312 143.976562 C 120.488281 144.476562 122.136719 143.605469 123.054688 142.25 C 130.375 131.484375 143.765625 125.683594 156.628906 128.199219 C 159.003906 128.667969 161.320312 129.386719 163.539062 130.355469 C 163.976562 130.546875 164.40625 130.738281 164.824219 130.945312 C 165.246094 131.148438 165.796875 131.445312 166.269531 131.691406 C 173.777344 135.792969 179.429688 142.609375 182.070312 150.746094 C 182.257812 152.136719 183.335938 153.242188 184.726562 153.464844 C 194.464844 155.546875 202.125 163.640625 202.679688 173.75 Z M 202.679688 173.75 "/>
<path style=" stroke:none;fill-rule:nonzero;fill:rgb(13.72549%,9.411765%,8.235294%);fill-opacity:1;" d="M 189.460938 150.875 C 201.253906 155.175781 208.261719 167.324219 206.078125 179.6875 C 203.894531 192.050781 193.148438 201.0625 180.59375 201.058594 L 110.269531 201.058594 C 97.976562 201.066406 86.835938 193.835938 81.828125 182.609375 C 76.824219 171.382812 78.898438 158.265625 87.117188 149.125 C 95.339844 139.988281 108.167969 136.546875 119.859375 140.339844 C 129.375 126.027344 147.519531 120.183594 163.601562 126.261719 L 164.101562 126.449219 C 166.449219 127.378906 168.691406 128.554688 170.796875 129.949219 C 170.90625 130.019531 171.015625 130.089844 171.121094 130.164062 C 177.054688 134.164062 181.703125 139.796875 184.5 146.386719 C 184.976562 147.503906 185.398438 148.65625 185.765625 149.828125 C 187.019531 150.085938 188.257812 150.433594 189.460938 150.875 Z M 188.589844 195.835938 C 197.589844 192.390625 203.199219 183.28125 202.679688 173.75 C 202.125 163.640625 194.464844 155.546875 184.769531 153.445312 C 183.382812 153.222656 182.300781 152.117188 182.113281 150.726562 C 179.472656 142.589844 173.820312 135.773438 166.316406 131.671875 C 165.816406 131.410156 165.359375 131.171875 164.871094 130.925781 C 164.378906 130.679688 164.019531 130.523438 163.585938 130.335938 C 161.367188 129.367188 159.050781 128.644531 156.675781 128.179688 C 143.808594 125.679688 130.421875 131.464844 123.101562 142.230469 C 122.179688 143.585938 120.535156 144.46875 118.863281 143.953125 C 108.320312 140.699219 96.730469 143.699219 89.539062 152.046875 C 89.113281 152.546875 88.710938 153.046875 88.320312 153.546875 C 87.128906 155.15625 86.125 156.898438 85.320312 158.734375 C 81.519531 167.207031 82.273438 177.027344 87.324219 184.816406 C 92.375 192.609375 101.035156 197.304688 110.320312 197.289062 C 113.058594 197.316406 115.820312 197.289062 118.546875 197.289062 L 176.234375 197.289062 C 180.464844 197.308594 184.53125 197.390625 188.589844 195.835938 Z M 188.589844 195.835938 "/>
</g>
</svg>
