<?xml version="1.0" encoding="UTF-8"?>
<svg xmlns="http://www.w3.org/2000/svg" xmlns:xlink="http://www.w3.org/1999/xlink" width="px" height="px" viewBox="0 0 250 250" version="1.1">
<g id="surface1">
<path style=" stroke:none;fill-rule:nonzero;fill:rgb(100%,100%,100%);fill-opacity:1;" d="M 162.785156 155.609375 C 176.074219 155.613281 187.203125 145.554688 188.539062 132.332031 C 189.871094 119.113281 180.976562 107.03125 167.953125 104.378906 C 163.75 90.785156 152.089844 80.828125 138.003906 78.796875 C 123.921875 76.765625 109.925781 83.027344 102.050781 94.878906 C 90.359375 91.085938 77.527344 94.527344 69.308594 103.664062 C 61.085938 112.804688 59.015625 125.925781 64.019531 137.152344 C 69.023438 148.378906 80.167969 155.605469 92.460938 155.601562 "/>
<path style=" stroke:none;fill-rule:nonzero;fill:rgb(13.72549%,9.411765%,8.235294%);fill-opacity:1;" d="M 162.785156 159.359375 C 177.746094 159.203125 190.292969 148.03125 192.179688 133.191406 C 194.03125 118.191406 183.679688 103.953125 168.949219 100.761719 L 171.570312 103.378906 C 167.035156 89.183594 154.984375 77.976562 140.164062 75.378906 C 124.109375 72.554688 107.894531 79.460938 98.808594 93 L 103.046875 91.273438 C 87.34375 86.429688 69.871094 93.160156 61.914062 107.660156 C 54.335938 121.484375 57.105469 139.34375 68.746094 150.054688 C 75.222656 155.988281 83.671875 159.300781 92.453125 159.359375 C 97.285156 159.414062 97.285156 151.914062 92.453125 151.859375 C 80.203125 151.726562 69.273438 143.558594 66.035156 131.660156 C 62.863281 119.652344 68.097656 107.003906 78.828125 100.75 C 85.621094 96.835938 93.601562 96.203125 101.046875 98.503906 C 102.714844 99.003906 104.359375 98.136719 105.28125 96.78125 C 112.601562 86.011719 125.988281 80.210938 138.855469 82.730469 C 150.835938 85.078125 160.59375 93.75 164.328125 105.375 C 164.683594 106.648438 165.679688 107.640625 166.949219 107.996094 C 178.214844 110.441406 186.199219 120.871094 184.753906 132.496094 C 183.386719 143.539062 173.753906 151.699219 162.753906 151.84375 C 157.933594 151.910156 157.921875 159.410156 162.753906 159.34375 Z M 162.785156 159.359375 "/>
<path style=" stroke:none;fill-rule:nonzero;fill:rgb(18.039216%,65.490196%,87.843137%);fill-opacity:1;" d="M 106.484375 150.128906 L 102.800781 140.53125 "/>
<path style=" stroke:none;fill-rule:nonzero;fill:rgb(18.039216%,65.490196%,87.843137%);fill-opacity:1;" d="M 110.101562 149.136719 L 106.414062 139.535156 C 105.691406 137.644531 103.914062 136.339844 101.800781 136.914062 C 99.996094 137.414062 98.449219 139.625 99.179688 141.53125 L 102.863281 151.128906 C 103.589844 153.019531 105.363281 154.324219 107.480469 153.75 C 109.285156 153.25 110.828125 151.039062 110.101562 149.136719 Z M 110.101562 149.136719 "/>
<path style=" stroke:none;fill-rule:nonzero;fill:rgb(18.039216%,65.490196%,87.843137%);fill-opacity:1;" d="M 114.71875 171.570312 L 111.03125 161.96875 "/>
<path style=" stroke:none;fill-rule:nonzero;fill:rgb(18.039216%,65.490196%,87.843137%);fill-opacity:1;" d="M 118.335938 170.574219 L 114.648438 160.976562 C 113.925781 159.085938 112.148438 157.78125 110.035156 158.355469 C 108.230469 158.855469 106.683594 161.066406 107.414062 162.96875 L 111.101562 172.570312 C 111.824219 174.460938 113.601562 175.765625 115.714844 175.191406 C 117.519531 174.691406 119.066406 172.480469 118.335938 170.574219 Z M 118.335938 170.574219 "/>
<path style=" stroke:none;fill-rule:nonzero;fill:rgb(18.039216%,65.490196%,87.843137%);fill-opacity:1;" d="M 125.464844 150.128906 L 121.78125 140.53125 "/>
<path style=" stroke:none;fill-rule:nonzero;fill:rgb(18.039216%,65.490196%,87.843137%);fill-opacity:1;" d="M 129.078125 149.136719 L 125.394531 139.535156 C 124.671875 137.644531 122.894531 136.339844 120.78125 136.914062 C 118.976562 137.414062 117.429688 139.625 118.160156 141.53125 L 121.84375 151.128906 C 122.570312 153.019531 124.34375 154.324219 126.460938 153.75 C 128.265625 153.25 129.808594 151.039062 129.078125 149.136719 Z M 129.078125 149.136719 "/>
<path style=" stroke:none;fill-rule:nonzero;fill:rgb(18.039216%,65.490196%,87.843137%);fill-opacity:1;" d="M 133.699219 171.570312 L 130.011719 161.96875 "/>
<path style=" stroke:none;fill-rule:nonzero;fill:rgb(18.039216%,65.490196%,87.843137%);fill-opacity:1;" d="M 137.316406 170.574219 L 133.628906 160.976562 C 132.90625 159.085938 131.128906 157.78125 129.015625 158.355469 C 127.210938 158.855469 125.664062 161.066406 126.394531 162.96875 L 130.078125 172.570312 C 130.804688 174.460938 132.578125 175.765625 134.695312 175.191406 C 136.5 174.691406 138.046875 172.480469 137.316406 170.574219 Z M 137.316406 170.574219 "/>
<path style=" stroke:none;fill-rule:nonzero;fill:rgb(18.039216%,65.490196%,87.843137%);fill-opacity:1;" d="M 144.445312 150.128906 L 140.761719 140.53125 "/>
<path style=" stroke:none;fill-rule:nonzero;fill:rgb(18.039216%,65.490196%,87.843137%);fill-opacity:1;" d="M 148.058594 149.136719 L 144.375 139.535156 C 143.648438 137.644531 141.875 136.339844 139.761719 136.914062 C 137.953125 137.414062 136.410156 139.625 137.140625 141.53125 L 140.824219 151.128906 C 141.550781 153.019531 143.324219 154.324219 145.441406 153.75 C 147.246094 153.25 148.789062 151.039062 148.058594 149.136719 Z M 148.058594 149.136719 "/>
<path style=" stroke:none;fill-rule:nonzero;fill:rgb(18.039216%,65.490196%,87.843137%);fill-opacity:1;" d="M 152.679688 171.570312 L 148.996094 161.96875 "/>
<path style=" stroke:none;fill-rule:nonzero;fill:rgb(18.039216%,65.490196%,87.843137%);fill-opacity:1;" d="M 156.296875 170.574219 L 152.609375 160.976562 C 151.886719 159.085938 150.109375 157.78125 147.996094 158.355469 C 146.191406 158.855469 144.644531 161.066406 145.375 162.96875 L 149.058594 172.570312 C 149.785156 174.460938 151.558594 175.765625 153.675781 175.191406 C 155.480469 174.691406 157.023438 172.480469 156.296875 170.574219 Z M 156.296875 170.574219 "/>
</g>
</svg>
