<?xml version="1.0" encoding="UTF-8"?>
<svg xmlns="http://www.w3.org/2000/svg" xmlns:xlink="http://www.w3.org/1999/xlink" width="256px" height="256px" viewBox="0 0 256 256" version="1.1">
<g id="surface1">
<path style=" stroke:none;fill-rule:nonzero;fill:rgb(100%,100%,100%);fill-opacity:1;" d="M 202.070312 172.714844 C 202.320312 180.148438 197.761719 187.171875 190.664062 189.644531 C 187.5625 190.726562 184.453125 190.621094 181.238281 190.621094 L 134.910156 190.621094 C 132.5625 190.621094 130.207031 190.648438 127.851562 190.621094 C 119.851562 190.632812 112.507812 186.183594 108.816406 179.085938 C 105.121094 171.988281 105.691406 163.425781 110.289062 156.875 C 115.679688 149.027344 125.648438 146.125 134.589844 148.867188 C 136.304688 149.382812 137.980469 148.492188 138.925781 147.101562 C 144.695312 138.664062 155.21875 134.085938 165.328125 136.070312 C 174.734375 137.910156 182.40625 144.691406 185.386719 153.800781 C 185.582031 155.21875 186.679688 156.34375 188.09375 156.570312 C 195.777344 158.269531 201.800781 164.652344 202.070312 172.714844 Z M 202.070312 172.714844 "/>
<path style=" stroke:none;fill-rule:nonzero;fill:rgb(13.72549%,9.411765%,8.235294%);fill-opacity:1;" d="M 198.234375 152.550781 C 200.519531 154.023438 202.550781 155.855469 204.253906 157.972656 C 203.660156 159.21875 202.992188 160.425781 202.253906 161.59375 C 200.753906 159.402344 198.855469 157.519531 196.652344 156.039062 C 197.261719 154.914062 197.792969 153.75 198.234375 152.550781 Z M 198.234375 152.550781 "/>
<path style=" stroke:none;fill-rule:nonzero;fill:rgb(100%,100%,100%);fill-opacity:1;" d="M 178.175781 116.644531 C 189.675781 119.117188 198.941406 128.65625 199.914062 140.609375 C 200.246094 144.664062 199.679688 148.742188 198.257812 152.550781 C 196.332031 151.304688 194.246094 150.335938 192.054688 149.667969 C 187.78125 138.914062 178.277344 130.515625 166.679688 128.53125 C 154.402344 126.398438 141.933594 131.105469 134.125 140.820312 C 124.886719 138.84375 115.265625 141.40625 108.238281 147.71875 C 101.980469 153.460938 98.539062 161.648438 98.816406 170.136719 C 95.625 170.136719 92.441406 170.167969 89.257812 170.136719 C 71.082031 170.085938 56.320312 155.441406 56.121094 137.265625 C 55.925781 119.089844 70.363281 104.128906 88.535156 103.679688 C 92.308594 103.628906 96.066406 104.1875 99.660156 105.339844 C 101.367188 105.851562 103.054688 104.960938 103.996094 103.574219 C 112.851562 90.515625 129.042969 83.511719 144.625 86.53125 C 159.109375 89.351562 170.921875 99.8125 175.460938 113.851562 C 175.644531 115.285156 176.75 116.421875 178.175781 116.644531 Z M 178.175781 116.644531 "/>
<path style=" stroke:none;fill-rule:nonzero;fill:rgb(13.72549%,9.411765%,8.235294%);fill-opacity:1;" d="M 198.234375 152.550781 C 197.792969 153.75 197.261719 154.914062 196.652344 156.039062 C 195.472656 155.238281 194.210938 154.5625 192.890625 154.015625 C 193.089844 153.300781 193.066406 152.546875 192.820312 151.847656 C 192.582031 151.113281 192.324219 150.382812 192.035156 149.667969 C 194.226562 150.335938 196.3125 151.304688 198.234375 152.550781 Z M 198.234375 152.550781 "/>
<path style=" stroke:none;fill-rule:nonzero;fill:rgb(13.72549%,9.411765%,8.235294%);fill-opacity:1;" d="M 192.820312 151.847656 C 193.066406 152.546875 193.089844 153.300781 192.890625 154.015625 C 191.671875 153.511719 190.410156 153.128906 189.117188 152.867188 C 188.746094 151.667969 188.296875 150.492188 187.777344 149.351562 C 188.523438 149.042969 189.351562 148.976562 190.136719 149.167969 C 190.78125 149.308594 191.410156 149.472656 192.035156 149.679688 C 192.324219 150.386719 192.582031 151.113281 192.820312 151.847656 Z M 192.820312 151.847656 "/>
<path style=" stroke:none;fill-rule:nonzero;fill:rgb(13.72549%,9.411765%,8.235294%);fill-opacity:1;" d="M 189.117188 152.867188 C 190.410156 153.128906 191.671875 153.511719 192.890625 154.015625 C 191.972656 157.0625 186.671875 157.773438 185.414062 153.890625 L 185.386719 153.800781 C 185.121094 151.953125 186.089844 150.148438 187.777344 149.351562 C 188.296875 150.492188 188.746094 151.667969 189.117188 152.867188 Z M 189.117188 152.867188 "/>
<path style=" stroke:none;fill-rule:nonzero;fill:rgb(13.72549%,9.411765%,8.235294%);fill-opacity:1;" d="M 185.414062 153.890625 C 186.671875 157.773438 191.972656 157.0625 192.890625 154.015625 C 194.210938 154.5625 195.472656 155.238281 196.652344 156.039062 C 198.847656 157.519531 200.746094 159.40625 202.238281 161.59375 C 202.976562 160.425781 203.644531 159.21875 204.238281 157.972656 C 207.613281 162.164062 209.542969 167.335938 209.734375 172.714844 C 210.089844 183.402344 203.265625 193.125 193.320312 196.824219 C 189.226562 198.359375 184.96875 198.300781 180.675781 198.300781 L 130.277344 198.300781 C 124.773438 198.300781 119.527344 197.605469 114.519531 195.082031 C 107.574219 191.496094 102.359375 185.277344 100.039062 177.816406 L 104.074219 177.816406 C 103.179688 175.351562 102.679688 172.757812 102.589844 170.136719 C 102.589844 169.824219 102.589844 169.511719 102.589844 169.199219 C 102.589844 155.25 113.898438 143.9375 127.851562 143.9375 C 130.496094 143.945312 133.121094 144.359375 135.640625 145.167969 C 141.65625 136.109375 152.113281 131.03125 162.953125 131.902344 C 173.789062 132.769531 183.304688 139.449219 187.800781 149.351562 C 186.117188 150.148438 185.144531 151.953125 185.410156 153.800781 C 182.429688 144.691406 174.757812 137.910156 165.355469 136.070312 C 155.242188 134.085938 144.722656 138.664062 138.953125 147.101562 C 138.003906 148.492188 136.332031 149.390625 134.613281 148.867188 C 125.691406 146.144531 115.707031 149.027344 110.316406 156.875 C 105.714844 163.425781 105.144531 171.988281 108.839844 179.085938 C 112.535156 186.183594 119.875 190.632812 127.878906 190.621094 C 130.230469 190.648438 132.585938 190.621094 134.9375 190.621094 L 181.246094 190.621094 C 184.464844 190.621094 187.570312 190.726562 190.675781 189.644531 C 197.769531 187.171875 202.332031 180.148438 202.082031 172.714844 C 201.808594 164.652344 195.789062 158.269531 188.105469 156.570312 C 186.691406 156.34375 185.589844 155.21875 185.394531 153.800781 Z M 185.414062 153.890625 "/>
<path style=" stroke:none;fill-rule:nonzero;fill:rgb(13.72549%,9.411765%,8.235294%);fill-opacity:1;" d="M 182.875 111.921875 C 184.382812 116.648438 176.96875 118.65625 175.472656 113.972656 C 175.472656 113.933594 175.445312 113.898438 175.4375 113.863281 C 175.097656 111.46875 177.058594 108.574219 180.199219 109.253906 C 180.839844 109.394531 181.476562 109.550781 182.113281 109.726562 C 182.382812 110.445312 182.640625 111.175781 182.875 111.921875 Z M 182.875 111.921875 "/>
<path style=" stroke:none;fill-rule:nonzero;fill:rgb(13.72549%,9.411765%,8.235294%);fill-opacity:1;" d="M 178.175781 116.644531 C 176.75 116.425781 175.640625 115.285156 175.457031 113.851562 C 175.457031 113.890625 175.484375 113.925781 175.492188 113.960938 C 176.988281 118.65625 184.402344 116.648438 182.898438 111.914062 C 182.660156 111.164062 182.382812 110.433594 182.132812 109.699219 C 184.722656 110.40625 187.222656 111.40625 189.589844 112.675781 C 201.691406 119.207031 209.042969 132.996094 207.507812 146.6875 C 207.074219 150.597656 205.980469 154.40625 204.277344 157.953125 C 202.578125 155.832031 200.546875 154.003906 198.261719 152.53125 C 199.6875 148.71875 200.253906 144.644531 199.921875 140.589844 C 198.921875 128.65625 189.65625 119.117188 178.175781 116.644531 Z M 178.175781 116.644531 "/>
<path style=" stroke:none;fill-rule:nonzero;fill:rgb(13.72549%,9.411765%,8.235294%);fill-opacity:1;" d="M 136.632812 141.460938 C 135.792969 141.203125 134.949219 140.988281 134.101562 140.804688 C 141.910156 131.089844 154.382812 126.382812 166.660156 128.515625 C 178.257812 130.5 187.761719 138.902344 192.035156 149.652344 C 191.410156 149.457031 190.78125 149.292969 190.136719 149.140625 C 189.351562 148.953125 188.523438 149.015625 187.777344 149.324219 C 183.277344 139.425781 173.765625 132.746094 162.925781 131.875 C 152.089844 131.007812 141.632812 136.085938 135.613281 145.140625 C 134.464844 144.769531 133.292969 144.480469 132.101562 144.28125 L 132.296875 143.203125 Z M 136.632812 141.460938 "/>
<path style=" stroke:none;fill-rule:nonzero;fill:rgb(13.72549%,9.411765%,8.235294%);fill-opacity:1;" d="M 136.632812 141.460938 L 132.296875 143.226562 C 132.867188 142.386719 133.472656 141.578125 134.101562 140.804688 C 134.949219 140.988281 135.792969 141.203125 136.632812 141.460938 Z M 136.632812 141.460938 "/>
<path style=" stroke:none;fill-rule:nonzero;fill:rgb(13.72549%,9.411765%,8.235294%);fill-opacity:1;" d="M 104.074219 177.816406 L 100.039062 177.816406 C 99.625 176.492188 99.3125 175.136719 99.109375 173.761719 C 98.929688 172.5625 98.820312 171.351562 98.789062 170.136719 L 102.589844 170.136719 C 102.679688 172.757812 103.179688 175.351562 104.074219 177.816406 Z M 104.074219 177.816406 "/>
<path style=" stroke:none;fill-rule:nonzero;fill:rgb(13.72549%,9.411765%,8.235294%);fill-opacity:1;" d="M 101.679688 97.933594 L 97.339844 99.695312 C 97.910156 98.855469 98.503906 98.035156 99.117188 97.230469 C 99.976562 97.433594 100.828125 97.667969 101.679688 97.933594 Z M 101.679688 97.933594 "/>
<path style=" stroke:none;fill-rule:nonzero;fill:rgb(13.72549%,9.411765%,8.235294%);fill-opacity:1;" d="M 175.4375 113.851562 C 170.898438 99.8125 159.085938 89.34375 144.597656 86.527344 C 129.019531 83.507812 112.824219 90.511719 103.972656 103.566406 C 103.03125 104.953125 101.339844 105.867188 99.636719 105.332031 C 96.039062 104.183594 92.285156 103.621094 88.507812 103.675781 C 70.339844 104.121094 55.898438 119.085938 56.097656 137.257812 C 56.292969 155.433594 71.054688 170.078125 89.230469 170.132812 C 92.414062 170.164062 95.601562 170.132812 98.789062 170.132812 C 98.820312 171.347656 98.929688 172.558594 99.109375 173.757812 C 99.3125 175.132812 99.625 176.488281 100.039062 177.8125 L 93.230469 177.8125 C 85.898438 177.8125 78.894531 177.117188 72.085938 174.035156 C 59.960938 168.546875 50.933594 156.753906 48.886719 143.589844 C 46.78125 130.078125 51.347656 116.101562 61.511719 106.8125 C 71.679688 97.574219 85.769531 93.980469 99.117188 97.222656 C 98.503906 98.027344 97.910156 98.851562 97.339844 99.691406 L 101.679688 97.929688 C 100.828125 97.664062 99.976562 97.417969 99.117188 97.222656 C 112.558594 79.300781 136.671875 73.171875 157.039062 82.5 C 168.734375 87.722656 177.695312 97.796875 182.128906 109.707031 C 181.492188 109.53125 180.855469 109.375 180.214844 109.234375 C 177.058594 108.542969 175.105469 111.457031 175.4375 113.851562 Z M 175.4375 113.851562 "/>
<path style=" stroke:none;fill-rule:nonzero;fill:rgb(13.72549%,9.411765%,8.235294%);fill-opacity:1;" d="M 98.816406 170.136719 C 98.535156 161.640625 101.976562 153.449219 108.242188 147.703125 C 115.261719 141.398438 124.875 138.832031 134.101562 140.800781 C 133.476562 141.570312 132.871094 142.378906 132.296875 143.222656 L 132.101562 144.300781 C 130.691406 144.054688 129.257812 143.929688 127.824219 143.933594 C 113.875 143.933594 102.5625 155.242188 102.5625 169.195312 C 102.5625 169.507812 102.5625 169.820312 102.5625 170.132812 L 98.816406 170.132812 Z M 98.816406 170.136719 "/>
<path style="fill:none;stroke-width:1;stroke-linecap:butt;stroke-linejoin:miter;stroke:rgb(13.72549%,9.411765%,8.235294%);stroke-opacity:1;stroke-miterlimit:10;" d="M 193.588257 189.903259 C 167.518616 183.563232 139.99939 190.582275 120.140076 208.633423 C 100.288391 226.768494 91.369629 254.066467 95.481873 280.456543 C 99.479675 306.167603 117.111206 329.200745 140.792847 339.920044 C 154.067993 345.916748 167.793274 347.297668 182.090759 347.297668 L 195.388794 347.297668 " transform="matrix(0.512,0,0,0.512,0,0)"/>
<path style="fill:none;stroke-width:1;stroke-linecap:butt;stroke-linejoin:miter;stroke:rgb(13.72549%,9.411765%,8.235294%);stroke-opacity:1;stroke-miterlimit:10;" d="M 193.588257 189.903259 C 195.266724 190.299988 196.929932 190.757751 198.59314 191.27655 L 190.116882 194.717407 C 191.230774 193.077087 192.390442 191.474915 193.588257 189.903259 Z M 193.588257 189.903259 " transform="matrix(0.512,0,0,0.512,0,0)"/>
<path style="fill:none;stroke-width:1;stroke-linecap:butt;stroke-linejoin:miter;stroke:rgb(13.72549%,9.411765%,8.235294%);stroke-opacity:1;stroke-miterlimit:10;" d="M 355.690002 214.279175 C 347.061157 191.017151 329.559326 171.340942 306.686401 161.140442 C 266.914368 142.936707 219.833374 154.907227 193.588257 189.903259 " transform="matrix(0.512,0,0,0.512,0,0)"/>
<path style="fill:none;stroke-width:1;stroke-linecap:butt;stroke-linejoin:miter;stroke:rgb(13.72549%,9.411765%,8.235294%);stroke-opacity:1;stroke-miterlimit:10;" d="M 193.000793 332.298279 C 186.767578 332.298279 180.549622 332.359314 174.331665 332.298279 C 138.832092 332.199097 110.00061 303.596497 109.611511 268.096924 C 109.230042 232.597351 137.428284 203.37677 172.920227 202.49939 C 180.290222 202.400208 187.6297 203.491211 194.648743 205.741882 C 197.982788 206.741333 201.278687 205.001831 203.117371 202.293396 C 220.413208 176.78833 252.037048 163.108826 282.470703 169.006348 C 310.760498 174.514771 333.831787 194.946289 342.697144 222.366333 " transform="matrix(0.512,0,0,0.512,0,0)"/>
<path style="fill:none;stroke-width:1;stroke-linecap:butt;stroke-linejoin:miter;stroke:rgb(13.72549%,9.411765%,8.235294%);stroke-opacity:1;stroke-miterlimit:10;" d="M 342.651367 222.366333 C 343.002319 225.166321 345.169067 227.394104 347.961426 227.82135 C 370.422363 232.650757 388.519287 251.281738 390.419006 274.627686 C 391.067505 282.546997 389.961243 290.512085 387.176514 297.950745 " transform="matrix(0.512,0,0,0.512,0,0)"/>
<path style="fill:none;stroke-width:1;stroke-linecap:butt;stroke-linejoin:miter;stroke:rgb(13.72549%,9.411765%,8.235294%);stroke-opacity:1;stroke-miterlimit:10;" d="M 398.933411 308.540344 C 402.259827 301.612854 404.388428 294.174194 405.24292 286.53717 C 408.241272 259.803772 393.890381 232.872009 370.239258 220.108032 C 365.623474 217.628479 360.740662 215.682983 355.682373 214.302063 " transform="matrix(0.512,0,0,0.512,0,0)"/>
<path style="fill:none;stroke-width:1;stroke-linecap:butt;stroke-linejoin:miter;stroke:rgb(13.72549%,9.411765%,8.235294%);stroke-opacity:1;stroke-miterlimit:10;" d="M 342.651367 222.366333 C 342.651367 222.442627 342.697144 222.511292 342.720032 222.579956 C 345.64209 231.750488 360.122681 227.828979 357.177734 218.582153 C 356.719971 217.11731 356.178284 215.690613 355.690002 214.256287 C 354.446411 213.920593 353.20282 213.607788 351.951599 213.340759 C 345.817566 211.997986 342.002869 217.689514 342.651367 222.366333 Z M 342.651367 222.366333 " transform="matrix(0.512,0,0,0.512,0,0)"/>
<path style="fill:none;stroke-width:1;stroke-linecap:butt;stroke-linejoin:miter;stroke:rgb(13.72549%,9.411765%,8.235294%);stroke-opacity:1;stroke-miterlimit:10;" d="M 362.083435 300.392151 L 362.136841 300.567627 C 364.593506 308.151245 374.946594 306.762695 376.739502 300.811768 C 377.128601 299.415588 377.082825 297.943115 376.602173 296.577454 C 376.13678 295.143127 375.63324 293.716431 375.068665 292.320251 C 366.722107 271.316528 348.15979 254.91333 325.508118 251.037598 C 301.528931 246.871948 277.168274 256.065369 261.917114 275.039673 C 260.696411 276.550293 259.513855 278.121948 258.392334 279.769897 L 266.860962 276.321411 C 265.220642 275.817871 263.572693 275.398254 261.917114 275.039673 C 243.881226 271.179199 225.090027 276.184082 211.357117 288.513184 C 199.150085 299.736023 192.443848 315.727234 193.000793 332.298279 C 193.061829 334.671021 193.267822 337.036133 193.618774 339.378357 C 194.023132 342.063904 194.633484 344.711304 195.4422 347.297668 C 199.966431 361.854553 210.128784 373.99292 223.670959 380.996704 C 233.436584 385.932922 243.667603 387.290955 254.447937 387.290955 L 352.912903 387.290955 C 361.297607 387.290955 369.58313 387.390137 377.609253 384.399414 C 397.033691 377.182007 410.362244 358.192444 409.667969 337.310791 C 409.294128 326.805115 405.525208 316.703796 398.933411 308.517456 C 395.606995 304.382324 391.639709 300.804138 387.176514 297.927856 C 383.422852 295.501709 379.348755 293.60199 375.068665 292.297363 C 373.847961 291.923523 372.619629 291.603088 371.360779 291.297913 C 369.827271 290.931702 368.209839 291.061401 366.752625 291.656494 C 363.456726 293.22052 361.564636 296.7453 362.083435 300.346375 " transform="matrix(0.512,0,0,0.512,0,0)"/>
<path style="fill:none;stroke-width:1;stroke-linecap:butt;stroke-linejoin:miter;stroke:rgb(13.72549%,9.411765%,8.235294%);stroke-opacity:1;stroke-miterlimit:10;" d="M 362.083435 300.392151 C 362.464905 303.161621 364.608765 305.358887 367.370605 305.801392 C 382.369995 309.120178 394.142151 321.586609 394.668579 337.333679 C 395.15686 351.852417 386.253357 365.570068 372.390747 370.399475 C 366.333008 372.512817 360.26001 372.306824 353.981018 372.306824 L 263.496399 372.306824 C 258.911133 372.306824 254.310608 372.360229 249.710083 372.306824 C 234.085083 372.329712 219.741821 363.639832 212.532043 349.777222 C 205.314636 335.914612 206.428528 319.190979 215.408325 306.396484 C 225.93689 291.069031 245.407104 285.400391 262.870789 290.756226 C 266.220093 291.763306 269.493103 290.023804 271.339417 287.307739 C 282.608032 270.828247 303.161621 261.886597 322.906494 265.762329 C 341.278076 269.355774 356.262207 282.600403 362.083435 300.392151 Z M 362.083435 300.392151 " transform="matrix(0.512,0,0,0.512,0,0)"/>
</g>
</svg>
