<?xml version="1.0" encoding="UTF-8"?>
<svg xmlns="http://www.w3.org/2000/svg" xmlns:xlink="http://www.w3.org/1999/xlink" width="px" height="px" viewBox="0 0 250 250" version="1.1">
<g id="surface1">
<path style=" stroke:none;fill-rule:nonzero;fill:rgb(97.254902%,71.372549%,17.647059%);fill-opacity:1;" d="M 167.398438 125 C 167.398438 148.417969 148.417969 167.398438 125 167.398438 C 101.582031 167.398438 82.601562 148.417969 82.601562 125 C 82.601562 101.582031 101.582031 82.601562 125 82.601562 C 148.417969 82.601562 167.398438 101.582031 167.398438 125 Z M 167.398438 125 "/>
<path style=" stroke:none;fill-rule:nonzero;fill:rgb(13.72549%,9.411765%,8.235294%);fill-opacity:1;" d="M 163.648438 125 C 163.519531 140.964844 153.515625 155.84375 138.34375 161.296875 C 122.851562 166.84375 105.546875 162.105469 95.035156 149.445312 C 84.773438 137.03125 83.59375 118.875 91.84375 105.113281 C 100.09375 91.355469 116.726562 83.839844 132.546875 87.074219 C 150.542969 90.828125 163.492188 106.617188 163.648438 125 C 163.691406 129.824219 171.191406 129.835938 171.148438 125 C 170.980469 105.601562 158.84375 88.324219 140.648438 81.585938 C 122.609375 74.941406 101.390625 80.824219 89.316406 95.753906 C 77.238281 110.683594 75.421875 132.078125 85.363281 148.671875 C 95.363281 165.363281 115.148438 173.980469 134.203125 170.226562 C 155.578125 166 171 146.578125 171.148438 125 C 171.191406 120.175781 163.691406 120.171875 163.648438 125 Z M 163.648438 125 "/>
<path style=" stroke:none;fill-rule:nonzero;fill:rgb(13.72549%,9.411765%,8.235294%);fill-opacity:1;" d="M 128.75 65.695312 L 128.75 49.695312 C 128.75 44.871094 121.25 44.859375 121.25 49.695312 L 121.25 65.695312 C 121.25 70.519531 128.75 70.53125 128.75 65.695312 Z M 128.75 65.695312 "/>
<path style=" stroke:none;fill-rule:nonzero;fill:rgb(13.72549%,9.411765%,8.235294%);fill-opacity:1;" d="M 95.34375 73.640625 L 87.355469 59.796875 "/>
<path style=" stroke:none;fill-rule:nonzero;fill:rgb(13.72549%,9.411765%,8.235294%);fill-opacity:1;" d="M 98.585938 71.746094 L 90.585938 57.898438 C 88.171875 53.71875 81.691406 57.496094 84.085938 61.683594 L 92.085938 75.53125 C 94.5 79.710938 100.980469 75.933594 98.585938 71.746094 Z M 98.585938 71.746094 "/>
<path style=" stroke:none;fill-rule:nonzero;fill:rgb(13.72549%,9.411765%,8.235294%);fill-opacity:1;" d="M 73.640625 95.34375 L 59.796875 87.355469 "/>
<path style=" stroke:none;fill-rule:nonzero;fill:rgb(13.72549%,9.411765%,8.235294%);fill-opacity:1;" d="M 75.53125 92.109375 L 61.683594 84.109375 C 57.496094 81.691406 53.714844 88.171875 57.898438 90.609375 L 71.746094 98.609375 C 75.933594 101.03125 79.714844 94.550781 75.53125 92.109375 Z M 75.53125 92.109375 "/>
<path style=" stroke:none;fill-rule:nonzero;fill:rgb(13.72549%,9.411765%,8.235294%);fill-opacity:1;" d="M 65.695312 121.25 L 49.695312 121.25 C 44.871094 121.25 44.859375 128.75 49.695312 128.75 L 65.695312 128.75 C 70.519531 128.75 70.53125 121.25 65.695312 121.25 Z M 65.695312 121.25 "/>
<path style=" stroke:none;fill-rule:nonzero;fill:rgb(13.72549%,9.411765%,8.235294%);fill-opacity:1;" d="M 73.640625 154.65625 L 59.796875 162.644531 "/>
<path style=" stroke:none;fill-rule:nonzero;fill:rgb(13.72549%,9.411765%,8.235294%);fill-opacity:1;" d="M 71.746094 151.414062 L 57.898438 159.414062 C 53.71875 161.828125 57.496094 168.308594 61.683594 165.914062 L 75.53125 157.914062 C 79.710938 155.5 75.933594 149.019531 71.746094 151.414062 Z M 71.746094 151.414062 "/>
<path style=" stroke:none;fill-rule:nonzero;fill:rgb(13.72549%,9.411765%,8.235294%);fill-opacity:1;" d="M 95.34375 176.359375 L 87.355469 190.203125 "/>
<path style=" stroke:none;fill-rule:nonzero;fill:rgb(13.72549%,9.411765%,8.235294%);fill-opacity:1;" d="M 92.109375 174.46875 L 84.109375 188.316406 C 81.691406 192.503906 88.171875 196.285156 90.609375 192.101562 L 98.609375 178.253906 C 101.03125 174.066406 94.550781 170.285156 92.109375 174.46875 Z M 92.109375 174.46875 "/>
<path style=" stroke:none;fill-rule:nonzero;fill:rgb(13.72549%,9.411765%,8.235294%);fill-opacity:1;" d="M 121.25 184.304688 L 121.25 200.304688 C 121.25 205.128906 128.75 205.140625 128.75 200.304688 L 128.75 184.304688 C 128.75 179.480469 121.25 179.46875 121.25 184.304688 Z M 121.25 184.304688 "/>
<path style=" stroke:none;fill-rule:nonzero;fill:rgb(13.72549%,9.411765%,8.235294%);fill-opacity:1;" d="M 154.65625 176.359375 L 162.644531 190.203125 "/>
<path style=" stroke:none;fill-rule:nonzero;fill:rgb(13.72549%,9.411765%,8.235294%);fill-opacity:1;" d="M 151.414062 178.253906 L 159.414062 192.101562 C 161.828125 196.28125 168.308594 192.503906 165.914062 188.316406 L 157.914062 174.46875 C 155.5 170.289062 149.019531 174.066406 151.414062 178.253906 Z M 151.414062 178.253906 "/>
<path style=" stroke:none;fill-rule:nonzero;fill:rgb(13.72549%,9.411765%,8.235294%);fill-opacity:1;" d="M 176.359375 154.65625 L 190.203125 162.644531 "/>
<path style=" stroke:none;fill-rule:nonzero;fill:rgb(13.72549%,9.411765%,8.235294%);fill-opacity:1;" d="M 174.46875 157.890625 L 188.316406 165.890625 C 192.503906 168.308594 196.285156 161.828125 192.101562 159.390625 L 178.253906 151.390625 C 174.066406 148.96875 170.285156 155.449219 174.46875 157.890625 Z M 174.46875 157.890625 "/>
<path style=" stroke:none;fill-rule:nonzero;fill:rgb(13.72549%,9.411765%,8.235294%);fill-opacity:1;" d="M 184.304688 128.75 L 200.304688 128.75 C 205.128906 128.75 205.140625 121.25 200.304688 121.25 L 184.304688 121.25 C 179.480469 121.25 179.46875 128.75 184.304688 128.75 Z M 184.304688 128.75 "/>
<path style=" stroke:none;fill-rule:nonzero;fill:rgb(13.72549%,9.411765%,8.235294%);fill-opacity:1;" d="M 176.359375 95.34375 L 190.203125 87.355469 "/>
<path style=" stroke:none;fill-rule:nonzero;fill:rgb(13.72549%,9.411765%,8.235294%);fill-opacity:1;" d="M 178.253906 98.585938 L 192.101562 90.585938 C 196.28125 88.171875 192.503906 81.691406 188.316406 84.085938 L 174.46875 92.085938 C 170.289062 94.5 174.066406 100.980469 178.253906 98.585938 Z M 178.253906 98.585938 "/>
<path style=" stroke:none;fill-rule:nonzero;fill:rgb(13.72549%,9.411765%,8.235294%);fill-opacity:1;" d="M 154.65625 73.640625 L 162.644531 59.796875 "/>
<path style=" stroke:none;fill-rule:nonzero;fill:rgb(13.72549%,9.411765%,8.235294%);fill-opacity:1;" d="M 157.890625 75.53125 L 165.890625 61.683594 C 168.308594 57.496094 161.828125 53.714844 159.390625 57.898438 L 151.390625 71.746094 C 148.96875 75.933594 155.449219 79.714844 157.890625 75.53125 Z M 157.890625 75.53125 "/>
</g>
</svg>
