<?xml version="1.0" encoding="UTF-8"?>
<svg xmlns="http://www.w3.org/2000/svg" xmlns:xlink="http://www.w3.org/1999/xlink" width="px" height="px" viewBox="0 0 250 250" version="1.1">
<g id="surface1">
<path style=" stroke:none;fill-rule:nonzero;fill:rgb(13.72549%,9.411765%,8.235294%);fill-opacity:1;" d="M 153.308594 74.265625 C 153.113281 70.355469 147.808594 69.859375 146.238281 72.765625 L 145.738281 72.574219 C 145.664062 71.175781 145.511719 69.796875 145.300781 68.429688 C 148.0625 69.332031 150.71875 70.535156 153.214844 72.023438 C 153.269531 72.78125 153.304688 73.5 153.308594 74.265625 Z M 153.308594 74.265625 "/>
<path style=" stroke:none;fill-rule:nonzero;fill:rgb(13.72549%,9.411765%,8.235294%);fill-opacity:1;" d="M 145.816406 74.5 C 145.816406 74.359375 145.816406 74.21875 145.816406 74.078125 C 145.828125 74.074219 145.84375 74.074219 145.855469 74.078125 C 145.832031 74.21875 145.820312 74.359375 145.816406 74.5 Z M 145.816406 74.5 "/>
<path style=" stroke:none;fill-rule:nonzero;fill:rgb(13.72549%,9.411765%,8.235294%);fill-opacity:1;" d="M 164.640625 122.171875 C 164.640625 128.285156 159.683594 133.238281 153.570312 133.238281 L 97.875 133.238281 L 107.691406 129.488281 L 147.324219 129.488281 C 150.453125 129.488281 154.695312 130.121094 157.453125 128.375 C 159.210938 127.253906 160.410156 125.449219 160.765625 123.398438 C 161.121094 121.347656 160.59375 119.242188 159.316406 117.601562 C 156.15625 113.601562 150.65625 114.308594 147.574219 117.910156 C 145.503906 120.316406 142.523438 118.851562 141.574219 116.523438 L 144.894531 115.253906 C 147.828125 111.574219 152.769531 110.152344 157.210938 111.710938 C 161.652344 113.265625 164.625 117.460938 164.621094 122.164062 Z M 164.640625 122.171875 "/>
<path style=" stroke:none;fill-rule:nonzero;fill:rgb(13.72549%,9.411765%,8.235294%);fill-opacity:1;" d="M 102 86.664062 C 100.867188 86.296875 99.714844 85.996094 98.550781 85.761719 L 98.761719 84.761719 C 100.175781 84.191406 101.589844 83.613281 103 83.035156 L 104 83.953125 C 103.296875 84.835938 102.636719 85.734375 102 86.664062 Z M 102 86.664062 "/>
<path style=" stroke:none;fill-rule:nonzero;fill:rgb(13.72549%,9.411765%,8.235294%);fill-opacity:1;" d="M 146.238281 72.773438 C 148.585938 73.707031 150.828125 74.882812 152.933594 76.273438 C 152.730469 76.660156 152.453125 77.003906 152.109375 77.273438 C 151.453125 76.855469 150.78125 76.460938 150.109375 76.085938 C 149.609375 75.804688 149.078125 75.539062 148.554688 75.289062 C 148.03125 75.039062 147.640625 74.855469 147.171875 74.648438 C 146.699219 74.445312 146.300781 74.285156 145.855469 74.113281 C 145.890625 73.648438 146.023438 73.191406 146.238281 72.773438 Z M 146.238281 72.773438 "/>
<path style=" stroke:none;fill-rule:nonzero;fill:rgb(13.72549%,9.411765%,8.235294%);fill-opacity:1;" d="M 64.820312 101.554688 C 65.21875 100.914062 65.644531 100.285156 66.101562 99.671875 L 66.160156 99.59375 C 65.714844 100.285156 65.304688 100.988281 64.921875 101.710938 Z M 64.820312 101.554688 "/>
<path style=" stroke:none;fill-rule:nonzero;fill:rgb(13.72549%,9.411765%,8.235294%);fill-opacity:1;" d="M 143 161.53125 C 147.269531 161.527344 150.972656 164.480469 151.921875 168.640625 C 152.875 172.804688 150.820312 177.070312 146.976562 178.921875 C 143.128906 180.777344 138.511719 179.722656 135.851562 176.386719 L 132.914062 174.355469 C 134.121094 172.519531 136.671875 171.613281 138.503906 173.734375 C 140.679688 176.234375 144.28125 177.023438 146.820312 174.496094 C 148.910156 172.378906 148.910156 168.976562 146.820312 166.859375 C 144.601562 164.640625 140.820312 165.28125 137.953125 165.28125 L 119.796875 165.28125 L 114.378906 161.523438 Z M 143 161.53125 "/>
<path style=" stroke:none;fill-rule:nonzero;fill:rgb(100%,100%,100%);fill-opacity:1;" d="M 132.136719 137 L 150.726562 137 C 151.898438 137 153.09375 137.050781 154.269531 137 C 160.246094 136.65625 165.445312 132.792969 167.5 127.171875 C 169.820312 120.835938 167.316406 113.601562 161.769531 109.851562 C 155.59375 105.664062 147.054688 107 142.269531 112.621094 C 141.3125 113.6875 141.050781 115.210938 141.59375 116.539062 C 142.519531 118.863281 145.503906 120.328125 147.59375 117.925781 C 150.675781 114.324219 156.171875 113.628906 159.335938 117.613281 C 160.613281 119.257812 161.140625 121.363281 160.785156 123.414062 C 160.429688 125.464844 159.230469 127.269531 157.476562 128.390625 C 154.71875 130.136719 150.476562 129.503906 147.34375 129.503906 L 97.894531 129.503906 C 93.070312 129.503906 93.058594 137.003906 97.894531 137.003906 Z M 153.714844 146.789062 C 153.527344 144.96875 151.964844 143.597656 150.136719 143.648438 L 105.5 143.648438 C 103.671875 143.601562 102.113281 144.96875 101.925781 146.789062 L 96 146.789062 C 95.816406 144.96875 94.257812 143.597656 92.429688 143.644531 C 80.175781 143.503906 69.246094 135.339844 66.011719 123.445312 C 64.382812 117.355469 64.914062 110.890625 67.511719 105.144531 C 68.59375 102.714844 70.023438 100.453125 71.75 98.429688 C 73.753906 96.074219 76.148438 94.082031 78.824219 92.539062 C 85.003906 89.03125 92.300781 88.042969 99.191406 89.789062 C 99.808594 89.933594 100.429688 90.109375 101.039062 90.289062 C 102.710938 90.789062 104.351562 89.921875 105.269531 88.558594 C 112.59375 77.796875 125.980469 71.988281 138.84375 74.511719 C 141.21875 74.976562 143.535156 75.699219 145.753906 76.664062 C 146.191406 76.855469 146.621094 77.054688 147.039062 77.253906 C 147.460938 77.453125 148.011719 77.753906 148.484375 78 C 150.019531 78.839844 151.484375 79.792969 152.871094 80.859375 C 158.246094 85.003906 162.230469 90.6875 164.300781 97.148438 C 164.65625 98.421875 165.648438 99.414062 166.921875 99.769531 C 167.726562 99.945312 168.527344 100.164062 169.308594 100.425781 C 179.308594 103.726562 186.066406 113.480469 184.71875 124.285156 C 183.34375 135.328125 173.71875 143.488281 162.71875 143.636719 C 160.898438 143.601562 159.355469 144.964844 159.15625 146.773438 Z M 153.714844 146.789062 "/>
<path style=" stroke:none;fill-rule:nonzero;fill:rgb(13.72549%,9.411765%,8.235294%);fill-opacity:1;" d="M 100.5 82.390625 C 99.890625 83.160156 99.308594 83.953125 98.75 84.769531 L 98.539062 85.769531 C 87.898438 83.628906 76.910156 87.1875 69.539062 95.15625 C 68.878906 94.015625 68.28125 92.84375 67.734375 91.65625 C 76.371094 83.195312 88.714844 79.703125 100.5 82.390625 Z M 100.5 82.390625 "/>
<path style=" stroke:none;fill-rule:nonzero;fill:rgb(13.72549%,9.411765%,8.235294%);fill-opacity:1;" d="M 145.84375 74.121094 C 146.285156 74.285156 146.726562 74.464844 147.160156 74.65625 C 147.59375 74.84375 148.085938 75.070312 148.546875 75.296875 C 149.003906 75.519531 149.589844 75.796875 150.101562 76.089844 C 150.785156 76.464844 151.453125 76.859375 152.101562 77.28125 C 151.070312 78.085938 149.714844 78.351562 148.453125 77.996094 C 147.980469 77.734375 147.5 77.496094 147.011719 77.25 C 146.222656 76.566406 145.777344 75.5625 145.804688 74.519531 C 145.808594 74.386719 145.824219 74.253906 145.84375 74.121094 Z M 145.84375 74.121094 "/>
<path style=" stroke:none;fill-rule:nonzero;fill:rgb(13.72549%,9.411765%,8.235294%);fill-opacity:1;" d="M 105.5 147.386719 L 101.875 147.386719 C 101.875 147.179688 101.890625 146.976562 101.925781 146.773438 L 153.714844 146.773438 C 153.742188 146.976562 153.757812 147.179688 153.761719 147.386719 Z M 105.5 147.386719 "/>
<path style=" stroke:none;fill-rule:nonzero;fill:rgb(13.72549%,9.411765%,8.235294%);fill-opacity:1;" d="M 171.535156 95.160156 L 168.921875 92.546875 C 169.550781 92.679688 170.171875 92.84375 170.785156 93.019531 C 171.050781 93.726562 171.300781 94.433594 171.535156 95.160156 Z M 171.535156 95.160156 "/>
<path style=" stroke:none;fill-rule:nonzero;fill:rgb(13.72549%,9.411765%,8.235294%);fill-opacity:1;" d="M 167.109375 96.609375 C 164.867188 89.6875 160.578125 83.609375 154.808594 79.171875 C 154.269531 78.753906 153.71875 78.355469 153.15625 77.976562 C 153.199219 77.476562 153.230469 76.976562 153.25 76.476562 C 160.238281 81.171875 165.410156 88.117188 167.910156 96.15625 C 176.996094 98.011719 184.398438 104.589844 187.308594 113.394531 C 184.042969 106.292969 177.605469 101.152344 169.953125 99.539062 C 169.847656 99.519531 169.738281 99.492188 169.628906 99.460938 C 168.285156 99.117188 167.285156 97.988281 167.109375 96.609375 Z M 167.109375 96.609375 "/>
<path style=" stroke:none;fill-rule:nonzero;fill:rgb(13.72549%,9.411765%,8.235294%);fill-opacity:1;" d="M 153.160156 78 C 152.828125 77.761719 152.476562 77.53125 152.109375 77.304688 C 152.453125 77.03125 152.730469 76.691406 152.933594 76.304688 L 153.261719 76.519531 C 153.238281 76.988281 153.203125 77.484375 153.160156 78 Z M 153.160156 78 "/>
<path style=" stroke:none;fill-rule:nonzero;fill:rgb(13.72549%,9.411765%,8.235294%);fill-opacity:1;" d="M 148.464844 78 C 149.722656 78.355469 151.078125 78.089844 152.109375 77.285156 C 152.464844 77.511719 152.816406 77.742188 153.160156 77.980469 C 153.085938 78.945312 152.980469 79.910156 152.851562 80.859375 C 151.464844 79.792969 150 78.839844 148.464844 78 Z M 148.464844 78 "/>
<path style=" stroke:none;fill-rule:nonzero;fill:rgb(13.72549%,9.411765%,8.235294%);fill-opacity:1;" d="M 145.75 72.585938 L 146.25 72.773438 C 146.027344 73.191406 145.890625 73.648438 145.851562 74.121094 C 145.835938 74.117188 145.824219 74.117188 145.808594 74.121094 C 145.800781 73.601562 145.78125 73.085938 145.75 72.585938 Z M 145.75 72.585938 "/>
<path style=" stroke:none;fill-rule:nonzero;fill:rgb(13.72549%,9.411765%,8.235294%);fill-opacity:1;" d="M 89.75 146.78125 C 91.828125 146.78125 93.910156 146.78125 95.996094 146.78125 C 96.027344 146.980469 96.042969 147.183594 96.046875 147.386719 L 92.425781 147.386719 C 89.308594 147.386719 86.207031 146.921875 83.230469 146 C 85.367188 146.496094 87.554688 146.757812 89.75 146.78125 Z M 89.75 146.78125 "/>
<path style=" stroke:none;fill-rule:nonzero;fill:rgb(13.72549%,9.411765%,8.235294%);fill-opacity:1;" d="M 62.664062 98.078125 C 64.101562 95.734375 65.816406 93.570312 67.773438 91.640625 C 68.320312 92.835938 68.914062 94.003906 69.578125 95.140625 C 68.308594 96.515625 67.164062 98.003906 66.160156 99.585938 L 66.101562 99.660156 C 65.640625 100.273438 65.214844 100.90625 64.820312 101.546875 C 64.355469 100.878906 63.914062 100.199219 63.496094 99.503906 C 63.210938 99.039062 62.933594 98.558594 62.664062 98.078125 Z M 62.664062 98.078125 "/>
<path style=" stroke:none;fill-rule:nonzero;fill:rgb(13.72549%,9.411765%,8.235294%);fill-opacity:1;" d="M 153.316406 74.5 L 153.316406 74.539062 C 153.316406 74.609375 153.316406 74.675781 153.316406 74.746094 L 153.316406 74.796875 C 153.289062 75.296875 153.160156 75.789062 152.941406 76.238281 C 150.835938 74.847656 148.589844 73.671875 146.246094 72.738281 C 147.796875 69.824219 153.121094 70.320312 153.316406 74.238281 C 153.316406 74.351562 153.316406 74.441406 153.316406 74.5 Z M 153.316406 74.5 "/>
<path style=" stroke:none;fill-rule:nonzero;fill:rgb(13.72549%,9.411765%,8.235294%);fill-opacity:1;" d="M 62.855469 105.265625 C 58.953125 114.109375 59.582031 124.292969 64.539062 132.589844 C 68.699219 139.40625 75.441406 144.242188 83.230469 146 C 86.207031 146.921875 89.308594 147.386719 92.425781 147.386719 L 96.046875 147.386719 C 96.046875 149.273438 94.855469 151.164062 92.425781 151.140625 C 83.640625 151.078125 75.191406 147.761719 68.710938 141.828125 C 57.070312 131.121094 54.300781 113.261719 61.886719 99.441406 C 62.136719 98.976562 62.386719 98.53125 62.664062 98.085938 C 62.933594 98.585938 63.210938 99.046875 63.496094 99.515625 C 63.914062 100.207031 64.355469 100.886719 64.820312 101.554688 C 64.074219 102.742188 63.417969 103.980469 62.855469 105.265625 Z M 62.855469 105.265625 "/>
<path style=" stroke:none;fill-rule:nonzero;fill:rgb(13.72549%,9.411765%,8.235294%);fill-opacity:1;" d="M 71.730469 98.421875 C 70.007812 100.445312 68.582031 102.707031 67.5 105.136719 C 66.601562 104.035156 65.738281 102.894531 64.929688 101.710938 C 65.308594 100.988281 65.71875 100.285156 66.171875 99.59375 C 66.570312 99.054688 66.996094 98.539062 67.425781 98.039062 C 68.175781 97.160156 68.980469 96.324219 69.835938 95.539062 C 70.414062 96.539062 71.050781 97.5 71.730469 98.421875 Z M 71.730469 98.421875 "/>
<path style=" stroke:none;fill-rule:nonzero;fill:rgb(13.72549%,9.411765%,8.235294%);fill-opacity:1;" d="M 71.730469 98.421875 C 71.050781 97.488281 70.414062 96.539062 69.828125 95.558594 C 77.601562 88.5 88.761719 86.164062 99 89.320312 L 99.265625 89.390625 L 99.171875 89.78125 C 92.28125 88.035156 84.984375 89.019531 78.804688 92.53125 C 76.125 94.074219 73.734375 96.066406 71.730469 98.421875 Z M 71.730469 98.421875 "/>
<path style=" stroke:none;fill-rule:nonzero;fill:rgb(13.72549%,9.411765%,8.235294%);fill-opacity:1;" d="M 61.304688 116.269531 C 61.300781 111.195312 62.542969 106.195312 64.925781 101.710938 C 65.734375 102.894531 66.59375 104.035156 67.496094 105.136719 C 64.898438 110.878906 64.367188 117.34375 65.996094 123.433594 C 69.230469 135.335938 80.160156 143.496094 92.414062 143.636719 C 94.242188 143.589844 95.800781 144.960938 95.984375 146.78125 C 93.898438 146.78125 91.816406 146.78125 89.738281 146.78125 C 87.550781 146.757812 85.371094 146.496094 83.238281 146.003906 C 70.199219 141.976562 61.304688 129.917969 61.304688 116.269531 Z M 61.304688 116.269531 "/>
<path style=" stroke:none;fill-rule:nonzero;fill:rgb(13.72549%,9.411765%,8.235294%);fill-opacity:1;" d="M 170.523438 146.195312 C 167.324219 146.824219 164.09375 146.773438 160.773438 146.773438 L 159.179688 146.773438 C 159.378906 144.964844 160.925781 143.601562 162.746094 143.636719 C 173.746094 143.488281 183.351562 135.324219 184.746094 124.285156 C 186.089844 113.484375 179.308594 103.726562 169.335938 100.425781 L 169.664062 99.453125 C 169.773438 99.488281 169.878906 99.515625 169.988281 99.535156 C 177.640625 101.148438 184.078125 106.285156 187.34375 113.390625 C 189.511719 119.964844 188.957031 127.136719 185.800781 133.300781 C 182.644531 139.460938 177.152344 144.105469 170.550781 146.191406 Z M 170.523438 146.195312 "/>
<path style=" stroke:none;fill-rule:nonzero;fill:rgb(13.72549%,9.411765%,8.235294%);fill-opacity:1;" d="M 105.5 147.386719 L 153.753906 147.386719 C 153.753906 149.261719 152.550781 151.140625 150.128906 151.140625 L 105.5 151.140625 C 103.078125 151.140625 101.875 149.261719 101.875 147.386719 Z M 105.5 147.386719 "/>
<path style=" stroke:none;fill-rule:nonzero;fill:rgb(13.72549%,9.411765%,8.235294%);fill-opacity:1;" d="M 99.265625 89.390625 C 100.964844 89.78125 102.613281 88.855469 103.558594 87.46875 C 111.445312 75.871094 125.859375 69.625 139.714844 72.339844 C 141.792969 72.746094 143.832031 73.335938 145.804688 74.105469 C 145.804688 74.246094 145.804688 74.386719 145.804688 74.523438 C 145.804688 75.238281 145.765625 75.949219 145.726562 76.664062 C 143.511719 75.695312 141.199219 74.96875 138.828125 74.5 C 125.960938 72 112.574219 77.785156 105.253906 88.550781 C 104.335938 89.90625 102.691406 90.789062 101.023438 90.28125 C 100.410156 90.089844 99.789062 89.921875 99.175781 89.78125 Z M 99.265625 89.390625 "/>
<path style=" stroke:none;fill-rule:nonzero;fill:rgb(13.72549%,9.411765%,8.235294%);fill-opacity:1;" d="M 152.933594 76.261719 C 153.15625 75.808594 153.285156 75.316406 153.308594 74.816406 C 153.308594 75.371094 153.285156 75.925781 153.253906 76.476562 Z M 152.933594 76.261719 "/>
<path style=" stroke:none;fill-rule:nonzero;fill:rgb(13.72549%,9.411765%,8.235294%);fill-opacity:1;" d="M 170.523438 146.195312 C 168.007812 146.988281 165.382812 147.390625 162.746094 147.386719 L 159.125 147.386719 C 159.128906 147.179688 159.144531 146.976562 159.179688 146.773438 L 160.773438 146.773438 C 164.09375 146.78125 167.328125 146.824219 170.523438 146.195312 Z M 170.523438 146.195312 "/>
<path style=" stroke:none;fill-rule:nonzero;fill:rgb(13.72549%,9.411765%,8.235294%);fill-opacity:1;" d="M 162.746094 147.386719 C 165.382812 147.390625 168.007812 146.988281 170.523438 146.195312 C 171.738281 145.96875 172.929688 145.632812 174.085938 145.195312 C 183.765625 141.488281 189.820312 131.695312 189.261719 121.410156 C 189.109375 118.648438 188.449219 115.9375 187.320312 113.410156 C 184.40625 104.605469 177.007812 98.027344 167.921875 96.171875 C 165.417969 88.132812 160.246094 81.1875 153.261719 76.488281 C 153.285156 75.941406 153.308594 75.386719 153.316406 74.828125 L 153.316406 74.78125 C 153.316406 74.714844 153.316406 74.644531 153.316406 74.574219 L 153.316406 74.5 C 153.316406 74.414062 153.316406 74.328125 153.316406 74.238281 C 153.316406 73.496094 153.269531 72.738281 153.230469 72.011719 C 161.269531 76.84375 167.453125 84.238281 170.785156 93.011719 C 170.171875 92.839844 169.550781 92.671875 168.921875 92.535156 L 171.535156 95.148438 C 171.304688 94.429688 171.035156 93.71875 170.78125 93.003906 C 184.496094 96.945312 193.914062 110.578125 192.144531 124.953125 C 190.257812 139.796875 177.707031 150.972656 162.746094 151.128906 C 160.308594 151.160156 159.105469 149.265625 159.125 147.375 Z M 162.746094 147.386719 "/>
<path style=" stroke:none;fill-rule:nonzero;fill:rgb(13.72549%,9.411765%,8.235294%);fill-opacity:1;" d="M 61.304688 116.269531 C 61.308594 129.914062 70.195312 141.96875 83.230469 146 C 75.441406 144.242188 68.699219 139.40625 64.539062 132.589844 C 59.582031 124.292969 58.953125 114.109375 62.855469 105.265625 C 63.417969 103.980469 64.074219 102.742188 64.820312 101.554688 L 64.921875 101.710938 C 62.542969 106.195312 61.300781 111.195312 61.304688 116.269531 Z M 61.304688 116.269531 "/>
<path style=" stroke:none;fill-rule:nonzero;fill:rgb(13.72549%,9.411765%,8.235294%);fill-opacity:1;" d="M 153.570312 133.238281 C 158.726562 133.230469 163.195312 129.660156 164.339844 124.628906 C 165.488281 119.601562 163.007812 114.449219 158.367188 112.203125 C 153.722656 109.957031 148.144531 111.21875 144.914062 115.238281 L 141.59375 116.511719 C 141.050781 115.183594 141.3125 113.660156 142.269531 112.589844 C 147.074219 106.976562 155.609375 105.640625 161.769531 109.820312 C 167.316406 113.574219 169.820312 120.820312 167.5 127.140625 C 165.433594 132.757812 160.230469 136.609375 154.253906 136.941406 C 153.078125 137.011719 151.886719 136.941406 150.710938 136.941406 L 97.875 136.941406 C 93.039062 136.941406 93.050781 129.441406 97.875 129.441406 L 107.691406 129.441406 L 97.875 133.191406 Z M 153.570312 133.238281 "/>
<path style=" stroke:none;fill-rule:nonzero;fill:rgb(13.72549%,9.411765%,8.235294%);fill-opacity:1;" d="M 170.523438 146.195312 C 177.128906 144.109375 182.621094 139.46875 185.777344 133.304688 C 188.933594 127.140625 189.488281 119.972656 187.320312 113.394531 C 188.449219 115.921875 189.109375 118.632812 189.261719 121.394531 C 189.820312 131.660156 183.761719 141.476562 174.085938 145.179688 C 172.929688 145.625 171.738281 145.960938 170.523438 146.195312 Z M 170.523438 146.195312 "/>
<path style=" stroke:none;fill-rule:nonzero;fill:rgb(13.72549%,9.411765%,8.235294%);fill-opacity:1;" d="M 145.734375 76.660156 C 145.78125 75.949219 145.808594 75.238281 145.816406 74.519531 C 145.789062 75.5625 146.230469 76.566406 147.019531 77.25 C 146.605469 77.050781 146.171875 76.851562 145.734375 76.660156 Z M 145.734375 76.660156 "/>
<path style=" stroke:none;fill-rule:nonzero;fill:rgb(13.72549%,9.411765%,8.235294%);fill-opacity:1;" d="M 69.824219 95.558594 C 68.972656 96.34375 68.167969 97.179688 67.414062 98.058594 C 66.984375 98.558594 66.558594 99.058594 66.160156 99.613281 C 67.164062 98.03125 68.308594 96.542969 69.578125 95.171875 Z M 69.824219 95.558594 "/>
<path style=" stroke:none;fill-rule:nonzero;fill:rgb(13.72549%,9.411765%,8.235294%);fill-opacity:1;" d="M 150.136719 143.640625 C 151.964844 143.589844 153.527344 144.957031 153.714844 146.78125 L 101.929688 146.78125 C 102.117188 144.960938 103.675781 143.589844 105.503906 143.640625 Z M 150.136719 143.640625 "/>
<path style=" stroke:none;fill-rule:nonzero;fill:rgb(13.72549%,9.411765%,8.235294%);fill-opacity:1;" d="M 152.125 170.679688 C 152.125 165.625 148.027344 161.53125 142.976562 161.53125 L 114.375 161.53125 L 119.789062 165.285156 L 114.378906 165.285156 C 109.546875 165.285156 109.554688 157.785156 114.378906 157.785156 L 138.695312 157.785156 C 142.359375 157.785156 145.953125 157.578125 149.300781 159.441406 C 156.039062 163.175781 157.863281 172.378906 153.230469 178.441406 C 150.847656 181.503906 147.222656 183.34375 143.339844 183.457031 C 139.460938 183.570312 135.734375 181.941406 133.179688 179.019531 C 132.007812 177.714844 131.886719 175.773438 132.894531 174.335938 L 135.828125 176.363281 C 138.253906 179.402344 142.335938 180.574219 146.003906 179.292969 C 149.671875 178.007812 152.128906 174.546875 152.128906 170.660156 Z M 152.125 170.679688 "/>
<path style=" stroke:none;fill-rule:nonzero;fill:rgb(13.72549%,9.411765%,8.235294%);fill-opacity:1;" d="M 100.5 82.390625 C 101.328125 82.578125 102.164062 82.796875 103 83.046875 C 101.589844 83.621094 100.175781 84.195312 98.761719 84.769531 C 99.328125 83.953125 99.910156 83.160156 100.5 82.390625 Z M 100.5 82.390625 "/>
<path style=" stroke:none;fill-rule:nonzero;fill:rgb(13.72549%,9.411765%,8.235294%);fill-opacity:1;" d="M 145.308594 68.441406 C 145.519531 69.808594 145.675781 71.183594 145.75 72.585938 C 130.835938 66.953125 113.992188 71.546875 104 83.96875 L 103 83.050781 C 102.175781 82.796875 101.339844 82.578125 100.5 82.394531 C 109.855469 70.367188 125.097656 64.5 140.105469 67.148438 C 141.867188 67.460938 143.605469 67.890625 145.308594 68.441406 Z M 145.308594 68.441406 "/>
<path style=" stroke:none;fill-rule:nonzero;fill:rgb(13.72549%,9.411765%,8.235294%);fill-opacity:1;" d="M 98.566406 85.761719 C 99.730469 85.996094 100.882812 86.296875 102.015625 86.664062 C 102.636719 85.734375 103.296875 84.835938 104.015625 83.964844 C 114.007812 71.539062 130.859375 66.945312 145.773438 72.578125 C 145.800781 73.078125 145.824219 73.578125 145.828125 74.078125 C 143.855469 73.3125 141.816406 72.722656 139.738281 72.316406 C 125.886719 69.601562 111.464844 75.84375 103.585938 87.445312 C 102.636719 88.835938 100.988281 89.753906 99.289062 89.363281 L 99.023438 89.296875 C 88.785156 86.140625 77.625 88.453125 69.851562 95.535156 L 69.601562 95.121094 C 76.96875 87.152344 87.957031 83.59375 98.601562 85.734375 Z M 98.566406 85.761719 "/>
<path style=" stroke:none;fill-rule:nonzero;fill:rgb(13.72549%,9.411765%,8.235294%);fill-opacity:1;" d="M 153.308594 74.765625 C 153.308594 74.695312 153.308594 74.628906 153.308594 74.558594 C 153.316406 74.628906 153.316406 74.699219 153.308594 74.765625 Z M 153.308594 74.765625 "/>
<path style=" stroke:none;fill-rule:nonzero;fill:rgb(13.72549%,9.411765%,8.235294%);fill-opacity:1;" d="M 169.644531 99.460938 L 169.316406 100.429688 C 168.53125 100.167969 167.734375 99.949219 166.925781 99.773438 C 165.652344 99.417969 164.660156 98.425781 164.304688 97.15625 C 162.230469 90.6875 158.234375 85 152.851562 80.859375 C 152.984375 79.90625 153.085938 78.945312 153.160156 77.980469 C 153.726562 78.359375 154.273438 78.761719 154.816406 79.175781 C 160.582031 83.613281 164.871094 89.691406 167.113281 96.613281 C 167.292969 97.992188 168.296875 99.121094 169.644531 99.460938 Z M 169.644531 99.460938 "/>
</g>
</svg>
