<?xml version="1.0" encoding="UTF-8"?>
<svg xmlns="http://www.w3.org/2000/svg" xmlns:xlink="http://www.w3.org/1999/xlink" width="px" height="px" viewBox="0 0 250 250" version="1.1">
<g id="surface1">
<path style=" stroke:none;fill-rule:nonzero;fill:rgb(100%,100%,100%);fill-opacity:1;" d="M 170.828125 94.808594 C 171.527344 94.996094 172.007812 95.628906 172.007812 96.351562 C 172.007812 97.070312 171.527344 97.703125 170.828125 97.890625 C 163.203125 99.941406 157.242188 105.902344 155.191406 113.53125 C 155.003906 114.226562 154.371094 114.710938 153.648438 114.710938 C 152.929688 114.710938 152.296875 114.226562 152.109375 113.53125 C 150.058594 105.902344 144.097656 99.941406 136.46875 97.890625 C 135.773438 97.703125 135.289062 97.070312 135.289062 96.351562 C 135.289062 95.628906 135.773438 94.996094 136.46875 94.808594 C 144.097656 92.757812 150.058594 86.796875 152.109375 79.171875 C 152.296875 78.472656 152.929688 77.992188 153.648438 77.992188 C 154.371094 77.992188 155.003906 78.472656 155.191406 79.171875 C 157.242188 86.796875 163.203125 92.757812 170.828125 94.808594 Z M 170.828125 94.808594 "/>
<path style=" stroke:none;fill-rule:nonzero;fill:rgb(13.72549%,9.411765%,8.235294%);fill-opacity:1;" d="M 169.835938 98.425781 C 168.171875 97.976562 171.941406 94.136719 169.144531 94.46875 C 168.800781 94.550781 168.464844 94.664062 168.144531 94.808594 C 167.285156 95.113281 166.433594 95.46875 165.609375 95.84375 C 163.839844 96.671875 162.171875 97.703125 160.644531 98.921875 C 157.910156 101.039062 155.632812 103.695312 153.949219 106.71875 C 153.128906 108.21875 152.019531 110.140625 151.789062 111.839844 C 151.613281 113.105469 150.71875 112.53125 153.671875 112.53125 C 156.101562 112.53125 155.933594 113.03125 155.441406 111.5 C 155.117188 110.515625 154.742188 109.554688 154.316406 108.609375 C 152.910156 105.4375 150.867188 102.589844 148.316406 100.246094 C 145.582031 97.761719 142.367188 95.867188 138.871094 94.683594 C 138.433594 94.488281 137.972656 94.347656 137.5 94.269531 L 137.5 96.34375 C 136.832031 98.039062 136.949219 98.703125 137.84375 98.34375 C 138.53125 98.34375 139.546875 97.789062 140.195312 97.53125 C 142.023438 96.820312 143.765625 95.90625 145.386719 94.796875 C 149.773438 91.808594 153.125 87.53125 154.976562 82.554688 C 155.21875 81.925781 155.765625 80.894531 155.761719 80.191406 L 151.605469 80.191406 L 151.800781 80.878906 C 151.929688 81.460938 152.128906 82.023438 152.390625 82.558594 C 155.386719 90.3125 161.859375 96.199219 169.859375 98.449219 C 174.511719 99.78125 176.496094 92.546875 171.859375 91.21875 C 167.574219 90.058594 163.847656 87.398438 161.359375 83.71875 C 159.199219 80.425781 158.859375 74.480469 153.925781 74.285156 C 148.636719 74.078125 148.273438 80.320312 146.046875 83.71875 C 143.667969 87.195312 140.1875 89.757812 136.164062 91 C 134.105469 91.691406 132.375 92.65625 131.75 94.921875 C 131.117188 97.304688 132.1875 99.8125 134.351562 101 C 136.074219 101.949219 138.066406 102.253906 139.804688 103.25 C 141.746094 104.359375 143.472656 105.804688 144.910156 107.515625 C 146.144531 108.996094 147.132812 110.664062 147.839844 112.460938 C 148.730469 114.714844 149.046875 116.914062 151.558594 117.960938 C 153.667969 118.863281 156.117188 118.316406 157.640625 116.601562 C 159.03125 114.996094 159.253906 112.625 160.238281 110.769531 C 162.605469 106.316406 166.414062 103.300781 171.136719 101.660156 C 173.445312 100.855469 175.320312 99.660156 175.675781 97.023438 C 176.035156 94.382812 174.394531 91.875 171.824219 91.148438 C 167.160156 89.933594 165.171875 97.171875 169.835938 98.425781 Z M 169.835938 98.425781 "/>
<path style=" stroke:none;fill-rule:nonzero;fill:rgb(95.686275%,92.54902%,56.470588%);fill-opacity:1;" d="M 116.453125 133.546875 C 98.613281 115.703125 93.390625 88.816406 103.253906 65.59375 C 77.625 76.5 62.445312 103.191406 66.171875 130.792969 C 69.894531 158.394531 91.605469 180.105469 119.207031 183.828125 C 146.808594 187.554688 173.5 172.375 184.40625 146.746094 C 161.183594 156.609375 134.296875 151.386719 116.453125 133.546875 Z M 116.453125 133.546875 "/>
<path style=" stroke:none;fill-rule:nonzero;fill:rgb(13.72549%,9.411765%,8.235294%);fill-opacity:1;" d="M 119.105469 130.894531 C 102.308594 113.894531 97.691406 88.574219 106.871094 66.59375 C 108.300781 63.175781 103.925781 61.25 101.371094 62.359375 C 69.136719 76.320312 53.625 113.199219 66.191406 146 C 72.148438 161.335938 83.769531 174.289062 98.628906 181.5 C 114.726562 189.375 133.347656 190.320312 150.15625 184.113281 C 166.96875 177.910156 180.507812 165.09375 187.628906 148.648438 C 188.730469 146.105469 186.804688 141.71875 183.394531 143.148438 C 161.394531 152.328125 136.101562 147.710938 119.09375 130.914062 C 115.65625 127.519531 110.351562 132.820312 113.789062 136.21875 C 132.515625 154.71875 161.015625 160.558594 185.390625 150.386719 L 181.15625 144.886719 C 174.835938 159.488281 162.96875 171.425781 147.953125 176.980469 C 134.609375 181.910156 119.9375 181.867188 106.621094 176.859375 C 79.03125 166.496094 63.699219 135.585938 71.363281 107.324219 C 76.070312 89.96875 88.699219 75.980469 105.140625 68.871094 L 99.640625 64.636719 C 89.464844 89.003906 95.308594 117.511719 113.804688 136.234375 C 117.199219 139.636719 122.5 134.328125 119.105469 130.894531 Z M 119.105469 130.894531 "/>
</g>
</svg>
