<?xml version="1.0" encoding="UTF-8"?>
<svg xmlns="http://www.w3.org/2000/svg" xmlns:xlink="http://www.w3.org/1999/xlink" width="px" height="px" viewBox="0 0 250 250" version="1.1">
<g id="surface1">
<path style=" stroke:none;fill-rule:nonzero;fill:rgb(100%,100%,100%);fill-opacity:1;" d="M 162.785156 150.640625 C 176.074219 150.644531 187.203125 140.582031 188.539062 127.363281 C 189.871094 114.140625 180.976562 102.058594 167.953125 99.410156 C 163.75 85.816406 152.089844 75.859375 138.003906 73.828125 C 123.921875 71.796875 109.925781 78.058594 102.050781 89.910156 C 90.359375 86.117188 77.527344 89.558594 69.308594 98.695312 C 61.085938 107.832031 59.015625 120.953125 64.019531 132.179688 C 69.023438 143.40625 80.167969 150.636719 92.460938 150.628906 "/>
<path style=" stroke:none;fill-rule:nonzero;fill:rgb(13.72549%,9.411765%,8.235294%);fill-opacity:1;" d="M 162.785156 154.390625 C 177.746094 154.230469 190.292969 143.058594 192.179688 128.21875 C 194.03125 113.21875 183.679688 98.984375 168.949219 95.789062 L 171.570312 98.410156 C 167.035156 84.214844 154.984375 73.003906 140.164062 70.410156 C 124.105469 67.585938 107.894531 74.496094 98.808594 88.035156 L 103.046875 86.308594 C 87.34375 81.464844 69.871094 88.195312 61.914062 102.695312 C 54.335938 116.519531 57.105469 134.378906 68.746094 145.089844 C 75.222656 151.019531 83.671875 154.335938 92.453125 154.394531 C 97.285156 154.449219 97.285156 146.949219 92.453125 146.894531 C 80.203125 146.761719 69.273438 138.59375 66.035156 126.695312 C 62.863281 114.6875 68.097656 102.039062 78.828125 95.785156 C 85.621094 91.871094 93.601562 91.238281 101.046875 93.539062 C 102.714844 94.039062 104.359375 93.171875 105.28125 91.816406 C 112.601562 81.046875 125.988281 75.246094 138.855469 77.765625 C 150.835938 80.113281 160.59375 88.785156 164.328125 100.410156 C 164.683594 101.683594 165.679688 102.675781 166.949219 103.03125 C 178.214844 105.476562 186.199219 115.90625 184.753906 127.53125 C 183.386719 138.574219 173.753906 146.734375 162.753906 146.878906 C 157.933594 146.945312 157.921875 154.445312 162.753906 154.378906 Z M 162.785156 154.390625 "/>
<path style=" stroke:none;fill-rule:nonzero;fill:rgb(18.039216%,65.490196%,87.843137%);fill-opacity:1;" d="M 102.484375 133.660156 L 98.796875 124.058594 "/>
<path style=" stroke:none;fill-rule:nonzero;fill:rgb(18.039216%,65.490196%,87.843137%);fill-opacity:1;" d="M 106.101562 132.660156 L 102.414062 123.058594 C 101.691406 121.171875 99.914062 119.863281 97.800781 120.441406 C 95.996094 120.941406 94.449219 123.148438 95.179688 125.054688 L 98.863281 134.65625 C 99.589844 136.546875 101.363281 137.851562 103.480469 137.273438 C 105.285156 136.773438 106.828125 134.566406 106.101562 132.660156 Z M 106.101562 132.660156 "/>
<path style=" stroke:none;fill-rule:nonzero;fill:rgb(18.039216%,65.490196%,87.843137%);fill-opacity:1;" d="M 121.464844 133.660156 L 117.78125 124.058594 "/>
<path style=" stroke:none;fill-rule:nonzero;fill:rgb(18.039216%,65.490196%,87.843137%);fill-opacity:1;" d="M 125.078125 132.664062 L 121.394531 123.066406 C 120.671875 121.175781 118.894531 119.871094 116.78125 120.445312 C 114.976562 120.945312 113.429688 123.15625 114.160156 125.058594 L 117.84375 134.660156 C 118.570312 136.550781 120.34375 137.855469 122.460938 137.28125 C 124.265625 136.78125 125.808594 134.570312 125.078125 132.664062 Z M 125.078125 132.664062 "/>
<path style=" stroke:none;fill-rule:nonzero;fill:rgb(18.039216%,65.490196%,87.843137%);fill-opacity:1;" d="M 140.445312 133.660156 L 136.761719 124.058594 "/>
<path style=" stroke:none;fill-rule:nonzero;fill:rgb(18.039216%,65.490196%,87.843137%);fill-opacity:1;" d="M 144.058594 132.664062 L 140.375 123.066406 C 139.648438 121.175781 137.875 119.871094 135.761719 120.445312 C 133.953125 120.945312 132.410156 123.15625 133.140625 125.058594 L 136.824219 134.660156 C 137.550781 136.550781 139.324219 137.855469 141.441406 137.28125 C 143.246094 136.78125 144.789062 134.570312 144.058594 132.664062 Z M 144.058594 132.664062 "/>
<path style=" stroke:none;fill-rule:nonzero;fill:rgb(18.039216%,65.490196%,87.843137%);fill-opacity:1;" d="M 110.71875 155.101562 L 107.03125 145.5 "/>
<path style=" stroke:none;fill-rule:nonzero;fill:rgb(18.039216%,65.490196%,87.843137%);fill-opacity:1;" d="M 114.335938 154.105469 L 110.644531 144.5 C 109.921875 142.609375 108.144531 141.304688 106.03125 141.878906 C 104.226562 142.378906 102.679688 144.589844 103.410156 146.496094 L 107.09375 156.09375 C 107.820312 157.984375 109.59375 159.289062 111.710938 158.714844 C 113.515625 158.214844 115.058594 156.003906 114.328125 154.101562 Z M 114.335938 154.105469 "/>
<path style=" stroke:none;fill-rule:nonzero;fill:rgb(18.039216%,65.490196%,87.843137%);fill-opacity:1;" d="M 129.699219 155.101562 L 126.011719 145.5 "/>
<path style=" stroke:none;fill-rule:nonzero;fill:rgb(18.039216%,65.490196%,87.843137%);fill-opacity:1;" d="M 133.316406 154.105469 L 129.628906 144.5 C 128.90625 142.609375 127.128906 141.304688 125.015625 141.878906 C 123.210938 142.378906 121.664062 144.589844 122.394531 146.496094 L 126.078125 156.09375 C 126.804688 157.984375 128.578125 159.289062 130.695312 158.714844 C 132.5 158.214844 134.046875 156.003906 133.316406 154.101562 Z M 133.316406 154.105469 "/>
<path style=" stroke:none;fill-rule:nonzero;fill:rgb(18.039216%,65.490196%,87.843137%);fill-opacity:1;" d="M 148.679688 155.101562 L 144.988281 145.5 "/>
<path style=" stroke:none;fill-rule:nonzero;fill:rgb(18.039216%,65.490196%,87.843137%);fill-opacity:1;" d="M 152.296875 154.105469 L 148.609375 144.5 C 147.886719 142.609375 146.109375 141.304688 143.996094 141.878906 C 142.191406 142.378906 140.644531 144.589844 141.375 146.496094 L 145.058594 156.09375 C 145.785156 157.984375 147.558594 159.289062 149.675781 158.714844 C 151.480469 158.214844 153.023438 156.003906 152.296875 154.101562 Z M 152.296875 154.105469 "/>
<path style=" stroke:none;fill-rule:nonzero;fill:rgb(18.039216%,65.490196%,87.843137%);fill-opacity:1;" d="M 118.949219 176.539062 L 115.265625 166.941406 "/>
<path style=" stroke:none;fill-rule:nonzero;fill:rgb(18.039216%,65.490196%,87.843137%);fill-opacity:1;" d="M 122.570312 175.546875 L 118.886719 165.945312 C 118.160156 164.054688 116.386719 162.75 114.269531 163.324219 C 112.464844 163.824219 110.921875 166.035156 111.648438 167.941406 L 115.335938 177.539062 C 116.058594 179.429688 117.835938 180.734375 119.949219 180.160156 C 121.753906 179.660156 123.300781 177.449219 122.570312 175.546875 Z M 122.570312 175.546875 "/>
<path style=" stroke:none;fill-rule:nonzero;fill:rgb(18.039216%,65.490196%,87.843137%);fill-opacity:1;" d="M 137.929688 176.539062 L 134.246094 166.941406 "/>
<path style=" stroke:none;fill-rule:nonzero;fill:rgb(18.039216%,65.490196%,87.843137%);fill-opacity:1;" d="M 141.550781 175.546875 L 137.863281 165.945312 C 137.140625 164.054688 135.363281 162.75 133.25 163.324219 C 131.445312 163.824219 129.898438 166.035156 130.628906 167.941406 L 134.316406 177.539062 C 135.039062 179.429688 136.816406 180.734375 138.929688 180.160156 C 140.734375 179.660156 142.28125 177.449219 141.550781 175.546875 Z M 141.550781 175.546875 "/>
<path style=" stroke:none;fill-rule:nonzero;fill:rgb(18.039216%,65.490196%,87.843137%);fill-opacity:1;" d="M 156.914062 176.539062 L 153.226562 166.941406 "/>
<path style=" stroke:none;fill-rule:nonzero;fill:rgb(18.039216%,65.490196%,87.843137%);fill-opacity:1;" d="M 160.53125 175.546875 L 156.84375 165.945312 C 156.121094 164.054688 154.34375 162.75 152.230469 163.324219 C 150.425781 163.824219 148.878906 166.035156 149.609375 167.941406 L 153.296875 177.539062 C 154.019531 179.429688 155.796875 180.734375 157.910156 180.160156 C 159.714844 179.660156 161.261719 177.449219 160.53125 175.546875 Z M 160.53125 175.546875 "/>
</g>
</svg>
