<?xml version="1.0" encoding="UTF-8"?>
<svg xmlns="http://www.w3.org/2000/svg" xmlns:xlink="http://www.w3.org/1999/xlink" width="px" height="px" viewBox="0 0 250 250" version="1.1">
<g id="surface1">
<path style=" stroke:none;fill-rule:nonzero;fill:rgb(100%,100%,100%);fill-opacity:1;" d="M 162.785156 148.34375 C 176.074219 148.347656 187.203125 138.289062 188.539062 125.066406 C 189.871094 111.847656 180.976562 99.765625 167.953125 97.113281 C 163.75 83.519531 152.089844 73.5625 138.003906 71.53125 C 123.921875 69.503906 109.925781 75.761719 102.050781 87.613281 C 90.359375 83.820312 77.527344 87.261719 69.308594 96.402344 C 61.085938 105.539062 59.015625 118.660156 64.019531 129.886719 C 69.023438 141.113281 80.167969 148.339844 92.460938 148.335938 "/>
<path style=" stroke:none;fill-rule:nonzero;fill:rgb(13.72549%,9.411765%,8.235294%);fill-opacity:1;" d="M 162.785156 152.09375 C 177.746094 151.9375 190.292969 140.765625 192.179688 125.925781 C 194.03125 110.925781 183.679688 96.691406 168.949219 93.496094 L 171.570312 96.113281 C 167.035156 81.921875 154.984375 70.710938 140.164062 68.113281 C 124.105469 65.289062 107.894531 72.199219 98.808594 85.738281 L 103.046875 84.015625 C 87.34375 79.171875 69.871094 85.898438 61.914062 100.398438 C 54.335938 114.226562 57.105469 132.085938 68.746094 142.796875 C 75.222656 148.726562 83.671875 152.042969 92.453125 152.101562 C 97.285156 152.15625 97.285156 144.65625 92.453125 144.601562 C 80.203125 144.464844 69.273438 136.300781 66.035156 124.398438 C 62.867188 112.394531 68.105469 99.75 78.835938 93.5 C 85.625 89.585938 93.605469 88.953125 101.050781 91.253906 C 102.71875 91.753906 104.363281 90.886719 105.285156 89.53125 C 112.605469 78.761719 125.996094 72.960938 138.859375 75.480469 C 150.839844 77.828125 160.601562 86.5 164.335938 98.125 C 164.6875 99.398438 165.683594 100.390625 166.953125 100.746094 C 178.21875 103.191406 186.203125 113.621094 184.761719 125.246094 C 183.390625 136.289062 173.761719 144.449219 162.761719 144.59375 C 157.941406 144.660156 157.925781 152.160156 162.761719 152.09375 Z M 162.785156 152.09375 "/>
<path style=" stroke:none;fill-rule:nonzero;fill:rgb(18.039216%,65.490196%,87.843137%);fill-opacity:1;" d="M 152.894531 158.453125 L 150.574219 157.113281 L 152.144531 156.199219 C 156.316406 153.773438 152.546875 147.289062 148.359375 149.699219 L 144.136719 152.15625 C 143.804688 152.34375 143.433594 152.539062 143.046875 152.746094 L 141.546875 151.878906 L 141.546875 144.675781 L 143.046875 143.804688 C 143.425781 144.003906 143.800781 144.199219 144.136719 144.394531 L 148.359375 146.851562 C 152.539062 149.28125 156.320312 142.800781 152.144531 140.351562 L 150.574219 139.433594 L 152.074219 138.574219 L 153.011719 138.035156 C 156.386719 136.085938 154.570312 131.480469 151.535156 131.035156 C 151.277344 131.003906 151.015625 131.003906 150.753906 131.035156 C 150.214844 131.089844 149.691406 131.261719 149.21875 131.535156 L 146.835938 132.914062 C 146.835938 132.316406 146.835938 131.714844 146.835938 131.113281 C 146.835938 131 146.835938 130.886719 146.835938 130.773438 C 146.519531 126.824219 140.941406 126.441406 139.628906 129.636719 C 139.4375 130.109375 139.34375 130.621094 139.351562 131.136719 L 139.351562 136.019531 C 139.351562 136.390625 139.351562 136.804688 139.316406 137.230469 L 139.316406 137.28125 L 137.394531 138.390625 L 134.300781 136.605469 C 133.800781 136.300781 133.179688 135.898438 132.546875 135.484375 C 132.226562 135.273438 131.890625 135.058594 131.546875 134.855469 L 131.546875 132.804688 C 131.925781 132.566406 132.296875 132.328125 132.636719 132.136719 L 136.871094 129.703125 C 137.128906 129.558594 137.375 129.382812 137.59375 129.179688 C 140.550781 126.484375 137.003906 120.980469 133.09375 123.230469 L 131.550781 124.113281 L 131.550781 121.5 C 131.550781 116.675781 124.050781 116.664062 124.050781 121.5 L 124.050781 124.160156 L 122.5 123.253906 C 118.890625 121.183594 115.585938 125.699219 117.414062 128.53125 C 117.746094 129.03125 118.191406 129.445312 118.714844 129.734375 L 122.949219 132.164062 C 123.289062 132.359375 123.660156 132.59375 124.039062 132.835938 L 124.039062 134.960938 C 123.15625 135.511719 122.316406 136.101562 121.605469 136.511719 L 118.25 138.449219 L 116.28125 137.308594 C 116.28125 136.871094 116.246094 136.445312 116.246094 136.050781 L 116.246094 131.164062 C 116.246094 126.339844 108.746094 126.328125 108.746094 131.164062 C 108.746094 131.765625 108.746094 132.363281 108.746094 132.964844 L 106.359375 131.585938 C 102.171875 129.171875 98.390625 135.644531 102.574219 138.085938 L 104.996094 139.484375 L 103.425781 140.398438 C 99.253906 142.824219 103.023438 149.308594 107.210938 146.898438 L 111.433594 144.445312 C 111.765625 144.253906 112.136719 144.058594 112.523438 143.855469 L 114.125 144.78125 L 114.125 151.894531 L 112.523438 152.820312 C 112.144531 152.621094 111.769531 152.425781 111.433594 152.230469 L 107.210938 149.773438 C 103.03125 147.34375 99.25 153.824219 103.425781 156.273438 L 104.996094 157.191406 L 102.675781 158.53125 C 98.496094 160.945312 102.269531 167.425781 106.460938 165.03125 L 108.75 163.710938 C 108.75 164.308594 108.75 164.910156 108.75 165.511719 C 108.75 170.335938 116.25 170.34375 116.25 165.511719 L 116.25 160.625 C 116.25 160.238281 116.25 159.808594 116.285156 159.363281 L 117.464844 158.683594 L 121.398438 160.953125 C 122.164062 161.394531 123.078125 162.050781 124.050781 162.644531 L 124.050781 163.839844 C 123.671875 164.078125 123.300781 164.316406 122.960938 164.511719 L 118.726562 166.941406 C 114.539062 169.339844 118.316406 175.824219 122.511719 173.441406 L 124.054688 172.554688 L 124.054688 175.328125 C 124.054688 180.15625 131.554688 180.164062 131.554688 175.328125 L 131.554688 172.554688 L 133.101562 173.441406 C 137.296875 175.84375 141.101562 169.371094 136.886719 166.941406 L 132.648438 164.511719 C 132.308594 164.316406 131.941406 164.078125 131.558594 163.839844 L 131.558594 162.683594 C 132.484375 162.113281 133.359375 161.496094 134.09375 161.070312 L 138.191406 158.703125 L 139.324219 159.359375 C 139.324219 159.800781 139.359375 160.226562 139.359375 160.621094 L 139.359375 165.503906 C 139.359375 170.328125 146.859375 170.339844 146.859375 165.503906 C 146.859375 164.90625 146.859375 164.304688 146.859375 163.703125 L 149.148438 165.023438 C 153.296875 167.351562 157.074219 160.871094 152.894531 158.453125 Z M 127.835938 155.914062 L 127.785156 155.886719 L 124.953125 154.25 L 124.035156 153.71875 L 121.625 152.328125 L 121.625 145.160156 L 121.996094 144.945312 L 124.035156 143.765625 L 125.746094 142.765625 L 127.785156 141.585938 L 127.835938 141.554688 L 129.875 142.734375 L 131.535156 143.695312 L 133.625 144.898438 L 134.046875 145.140625 L 134.046875 152.308594 L 131.546875 153.761719 L 130.675781 154.261719 Z M 127.835938 155.914062 "/>
</g>
</svg>
