<?xml version="1.0" encoding="UTF-8"?>
<svg xmlns="http://www.w3.org/2000/svg" xmlns:xlink="http://www.w3.org/1999/xlink" width="px" height="px" viewBox="0 0 250 250" version="1.1">
<g id="surface1">
<path style=" stroke:none;fill-rule:nonzero;fill:rgb(13.72549%,9.411765%,8.235294%);fill-opacity:1;" d="M 116.75 57.871094 C 115.574219 60.691406 114.605469 63.59375 113.84375 66.554688 C 116.53125 64.855469 119.34375 63.367188 122.261719 62.105469 Z M 116.75 57.871094 "/>
<path style=" stroke:none;fill-rule:nonzero;fill:rgb(100%,100%,100%);fill-opacity:1;" d="M 147.75 133 C 149.3125 135.425781 150.554688 138.042969 151.445312 140.789062 C 151.628906 142.183594 152.707031 143.289062 154.09375 143.511719 C 156.804688 144.097656 159.390625 145.160156 161.730469 146.648438 C 167.730469 150.375 171.558594 156.773438 172 163.824219 C 172.058594 164.925781 172.035156 166.03125 171.929688 167.128906 C 171.609375 170.5625 170.507812 173.878906 168.714844 176.824219 C 166.21875 180.96875 162.417969 184.164062 157.910156 185.910156 C 153.851562 187.464844 149.78125 187.386719 145.550781 187.386719 L 87.828125 187.386719 C 85.085938 187.386719 82.328125 187.410156 79.601562 187.386719 C 69.246094 187.382812 59.777344 181.539062 55.128906 172.285156 C 50.484375 163.027344 51.457031 151.945312 57.644531 143.640625 C 63.238281 136.105469 72.144531 132.316406 81.179688 132.785156 C 83.554688 132.910156 85.90625 133.328125 88.179688 134.03125 C 88.636719 134.167969 89.121094 134.207031 89.59375 134.144531 C 90.753906 133.957031 91.777344 133.289062 92.414062 132.304688 C 98.988281 122.695312 110.066406 117.179688 121.695312 117.726562 C 123.140625 117.800781 124.574219 117.980469 125.996094 118.253906 C 134.949219 120.011719 142.800781 125.335938 147.75 133 Z M 147.75 133 "/>
<path style=" stroke:none;fill-rule:nonzero;fill:rgb(13.72549%,9.411765%,8.235294%);fill-opacity:1;" d="M 204.753906 141.914062 C 204.421875 142.691406 204.070312 143.457031 203.703125 144.214844 L 202.5 143.636719 L 198.265625 138.136719 L 197.984375 137.394531 C 198.828125 137.085938 199.671875 136.761719 200.484375 136.394531 C 203.929688 135 205.855469 139.371094 204.753906 141.914062 Z M 204.753906 141.914062 "/>
<path style=" stroke:none;fill-rule:nonzero;fill:rgb(13.72549%,9.411765%,8.235294%);fill-opacity:1;" d="M 202.5 143.636719 L 203.691406 144.214844 C 198.1875 155.578125 189.550781 165.128906 178.800781 171.75 C 179.34375 169.386719 179.585938 166.964844 179.519531 164.539062 C 179.519531 163.804688 179.449219 163.074219 179.375 162.351562 C 185.101562 157.992188 189.996094 152.636719 193.820312 146.539062 C 196.78125 145.78125 199.679688 144.8125 202.5 143.636719 Z M 202.5 143.636719 "/>
<path style=" stroke:none;fill-rule:nonzero;fill:rgb(13.72549%,9.411765%,8.235294%);fill-opacity:1;" d="M 198.28125 138.128906 L 202.515625 143.628906 C 199.695312 144.804688 196.792969 145.777344 193.835938 146.535156 C 195.53125 143.851562 197.015625 141.042969 198.28125 138.128906 Z M 198.28125 138.128906 "/>
<path style=" stroke:none;fill-rule:nonzero;fill:rgb(13.72549%,9.411765%,8.235294%);fill-opacity:1;" d="M 186.621094 91.601562 C 185.25 91.15625 184.3125 89.886719 184.296875 88.445312 C 184.609375 88.320312 184.925781 88.195312 185.238281 88.078125 C 185.5625 87.9375 185.894531 87.824219 186.238281 87.746094 C 189.035156 87.410156 185.265625 91.246094 186.929688 91.699219 Z M 186.621094 91.601562 "/>
<path style=" stroke:none;fill-rule:nonzero;fill:rgb(13.72549%,9.411765%,8.235294%);fill-opacity:1;" d="M 186.253906 87.746094 C 185.910156 87.824219 185.578125 87.9375 185.253906 88.078125 C 184.941406 88.195312 184.625 88.320312 184.308594 88.445312 C 184.210938 86.15625 186.070312 83.691406 188.953125 84.445312 C 193.589844 85.773438 191.609375 93.011719 186.953125 91.679688 C 185.28125 91.25 189.050781 87.410156 186.253906 87.746094 Z M 186.253906 87.746094 "/>
<path style=" stroke:none;fill-rule:nonzero;fill:rgb(13.72549%,9.411765%,8.235294%);fill-opacity:1;" d="M 182.703125 89.121094 C 183.203125 88.878906 183.761719 88.660156 184.296875 88.445312 C 184.3125 89.886719 185.25 91.15625 186.621094 91.601562 C 184.933594 91.097656 183.300781 90.425781 181.746094 89.601562 C 182.058594 89.433594 182.375 89.269531 182.703125 89.121094 Z M 182.703125 89.121094 "/>
<path style=" stroke:none;fill-rule:nonzero;fill:rgb(13.72549%,9.411765%,8.235294%);fill-opacity:1;" d="M 179.535156 164.539062 C 179.601562 166.964844 179.359375 169.386719 178.816406 171.75 C 177.296875 172.6875 175.738281 173.558594 174.140625 174.371094 C 175.238281 171.457031 175.796875 168.371094 175.796875 165.261719 C 175.796875 165.128906 175.796875 165 175.796875 164.863281 C 177.023438 164.074219 178.230469 163.234375 179.394531 162.363281 C 179.464844 163.074219 179.5 163.804688 179.535156 164.539062 Z M 179.535156 164.539062 "/>
<path style=" stroke:none;fill-rule:nonzero;fill:rgb(13.72549%,9.411765%,8.235294%);fill-opacity:1;" d="M 179.390625 162.351562 C 178.226562 163.234375 177.019531 164.074219 175.789062 164.851562 C 175.703125 158.648438 173.382812 152.683594 169.253906 148.050781 C 170.921875 148.261719 172.589844 148.410156 174.253906 148.496094 C 177.109375 152.605469 178.875 157.371094 179.390625 162.351562 Z M 179.390625 162.351562 "/>
<path style=" stroke:none;fill-rule:nonzero;fill:rgb(95.686275%,92.54902%,56.470588%);fill-opacity:1;" d="M 193.835938 146.539062 C 190.007812 152.636719 185.117188 157.992188 179.390625 162.351562 C 178.871094 157.371094 177.101562 152.609375 174.246094 148.5 C 180.835938 148.84375 187.441406 148.183594 193.835938 146.539062 Z M 193.835938 146.539062 "/>
<path style=" stroke:none;fill-rule:nonzero;fill:rgb(13.72549%,9.411765%,8.235294%);fill-opacity:1;" d="M 175.796875 165.261719 C 175.796875 168.371094 175.238281 171.457031 174.140625 174.371094 C 172.375 175.269531 170.570312 176.089844 168.726562 176.824219 C 170.519531 173.878906 171.617188 170.5625 171.941406 167.128906 C 173.253906 166.421875 174.535156 165.667969 175.789062 164.863281 C 175.789062 165 175.796875 165.128906 175.796875 165.261719 Z M 175.796875 165.261719 "/>
<path style=" stroke:none;fill-rule:nonzero;fill:rgb(13.72549%,9.411765%,8.235294%);fill-opacity:1;" d="M 169.253906 148.066406 C 173.382812 152.699219 175.703125 158.660156 175.789062 164.863281 C 174.539062 165.671875 173.257812 166.425781 171.941406 167.128906 C 172.046875 166.03125 172.070312 164.925781 172.011719 163.824219 C 171.5625 156.777344 167.734375 150.382812 161.730469 146.660156 C 164.210938 147.273438 166.722656 147.742188 169.253906 148.066406 Z M 169.253906 148.066406 "/>
<path style=" stroke:none;fill-rule:nonzero;fill:rgb(13.72549%,9.411765%,8.235294%);fill-opacity:1;" d="M 172.839844 73.441406 C 172.839844 74.148438 172.300781 75.179688 172.054688 75.808594 C 171.675781 76.78125 171.253906 77.734375 170.78125 78.664062 C 170.289062 77.738281 169.851562 76.785156 169.46875 75.808594 C 169.210938 75.273438 169.015625 74.710938 168.886719 74.128906 C 168.820312 73.898438 168.753906 73.671875 168.683594 73.441406 Z M 172.839844 73.441406 "/>
<path style=" stroke:none;fill-rule:nonzero;fill:rgb(13.72549%,9.411765%,8.235294%);fill-opacity:1;" d="M 169.46875 75.808594 C 169.851562 76.785156 170.289062 77.738281 170.78125 78.664062 C 170.46875 79.273438 170.140625 79.875 169.78125 80.453125 C 167.871094 83.445312 165.386719 86.023438 162.476562 88.050781 C 161.632812 88.636719 160.753906 89.164062 159.839844 89.625 C 158.589844 88.972656 157.292969 88.417969 155.960938 87.960938 C 155.523438 87.765625 155.066406 87.625 154.59375 87.546875 L 154.59375 89.625 C 153.929688 91.316406 154.039062 91.976562 154.933594 91.601562 C 155.625 91.601562 156.640625 91.046875 157.289062 90.785156 C 158.160156 90.433594 159.011719 90.054688 159.839844 89.625 C 161.847656 90.675781 163.714844 91.980469 165.394531 93.5 C 167.578125 95.5 169.390625 97.871094 170.75 100.5 C 169.980469 101.898438 169.089844 103.578125 168.886719 105.085938 C 168.710938 106.351562 167.816406 105.773438 170.765625 105.773438 C 173.191406 105.773438 173.023438 106.273438 172.535156 104.746094 C 172.207031 103.765625 171.832031 102.800781 171.40625 101.859375 C 171.203125 101.398438 170.984375 100.945312 170.75 100.5 L 171.046875 99.964844 C 173.53125 95.539062 177.25 91.929688 181.746094 89.570312 C 183.300781 90.394531 184.933594 91.066406 186.621094 91.570312 L 186.945312 91.671875 C 191.59375 93 193.574219 85.765625 188.945312 84.433594 C 191.511719 85.164062 193.152344 87.667969 192.796875 90.308594 C 192.441406 92.949219 190.566406 94.144531 188.253906 94.945312 C 183.53125 96.585938 179.726562 99.605469 177.359375 104.054688 C 176.359375 105.914062 176.148438 108.28125 174.753906 109.890625 C 173.230469 111.605469 170.78125 112.148438 168.675781 111.246094 C 166.175781 110.183594 165.84375 107.984375 164.960938 105.746094 C 164.25 103.949219 163.261719 102.28125 162.023438 100.800781 C 160.589844 99.085938 158.859375 97.644531 156.921875 96.535156 C 155.179688 95.535156 153.191406 95.234375 151.464844 94.285156 C 149.292969 93.089844 148.222656 90.566406 148.871094 88.175781 C 149.488281 85.910156 151.21875 84.945312 153.285156 84.253906 C 157.289062 82.996094 160.75 80.421875 163.109375 76.949219 C 165.335938 73.550781 165.699219 67.308594 170.988281 67.515625 C 175.941406 67.710938 176.269531 73.65625 178.425781 76.949219 C 180.914062 80.628906 184.640625 83.289062 188.925781 84.449219 C 186.039062 83.675781 184.179688 86.140625 184.28125 88.449219 C 183.746094 88.664062 183.210938 88.886719 182.691406 89.125 C 182.359375 89.273438 182.046875 89.441406 181.730469 89.625 C 177.058594 87.164062 173.238281 83.355469 170.765625 78.691406 C 171.238281 77.761719 171.660156 76.804688 172.039062 75.835938 C 172.285156 75.203125 172.828125 74.175781 172.824219 73.464844 L 168.671875 73.464844 C 168.738281 73.695312 168.804688 73.925781 168.871094 74.15625 C 169.007812 74.726562 169.207031 75.28125 169.46875 75.808594 Z M 169.46875 75.808594 "/>
<path style=" stroke:none;fill-rule:nonzero;fill:rgb(13.72549%,9.411765%,8.235294%);fill-opacity:1;" d="M 172.535156 104.773438 C 173.035156 106.308594 173.191406 105.804688 170.765625 105.804688 C 167.816406 105.804688 168.710938 106.378906 168.886719 105.113281 C 169.089844 103.613281 169.980469 101.929688 170.75 100.53125 C 170.984375 100.976562 171.203125 101.429688 171.40625 101.890625 C 171.832031 102.832031 172.207031 103.792969 172.535156 104.773438 Z M 172.535156 104.773438 "/>
<path style=" stroke:none;fill-rule:nonzero;fill:rgb(100%,100%,100%);fill-opacity:1;" d="M 170.78125 78.664062 C 173.253906 83.328125 177.074219 87.140625 181.746094 89.601562 C 177.25 91.960938 173.53125 95.574219 171.046875 100 L 170.75 100.535156 C 169.390625 97.90625 167.578125 95.535156 165.394531 93.535156 C 163.710938 92.007812 161.84375 90.699219 159.828125 89.640625 C 160.742188 89.175781 161.625 88.652344 162.464844 88.066406 C 165.378906 86.039062 167.859375 83.457031 169.769531 80.46875 C 170.140625 79.875 170.46875 79.273438 170.78125 78.664062 Z M 170.78125 78.664062 "/>
<path style=" stroke:none;fill-rule:nonzero;fill:rgb(13.72549%,9.411765%,8.235294%);fill-opacity:1;" d="M 158.359375 137.878906 C 160.441406 138.589844 162.558594 139.179688 164.703125 139.65625 C 168.492188 141.875 171.746094 144.894531 174.246094 148.5 C 172.578125 148.414062 170.910156 148.265625 169.246094 148.054688 C 166.394531 144.859375 162.800781 142.414062 158.78125 140.941406 C 158.953125 140.265625 158.925781 139.554688 158.699219 138.894531 C 158.601562 138.558594 158.5 138.21875 158.359375 137.878906 Z M 158.359375 137.878906 "/>
<path style=" stroke:none;fill-rule:nonzero;fill:rgb(13.72549%,9.411765%,8.235294%);fill-opacity:1;" d="M 164.703125 139.65625 C 175.792969 142.089844 187.34375 141.304688 198 137.390625 L 198.28125 138.128906 C 197.015625 141.042969 195.53125 143.855469 193.835938 146.539062 C 187.441406 148.183594 180.835938 148.84375 174.246094 148.5 C 171.746094 144.894531 168.492188 141.875 164.703125 139.65625 Z M 164.703125 139.65625 "/>
<path style=" stroke:none;fill-rule:nonzero;fill:rgb(13.72549%,9.411765%,8.235294%);fill-opacity:1;" d="M 164.703125 139.65625 C 162.558594 139.179688 160.441406 138.589844 158.359375 137.878906 C 158.230469 137.503906 158.09375 137.136719 157.949219 136.761719 C 160.3125 137.441406 162.582031 138.414062 164.703125 139.65625 Z M 164.703125 139.65625 "/>
<path style=" stroke:none;fill-rule:nonzero;fill:rgb(13.72549%,9.411765%,8.235294%);fill-opacity:1;" d="M 155.949219 87.960938 C 157.285156 88.417969 158.582031 88.972656 159.828125 89.625 C 159 90.054688 158.148438 90.433594 157.28125 90.785156 C 156.628906 91.046875 155.613281 91.621094 154.925781 91.601562 C 154.03125 91.976562 153.925781 91.316406 154.585938 89.625 L 154.585938 87.546875 C 155.054688 87.625 155.515625 87.765625 155.949219 87.960938 Z M 155.949219 87.960938 "/>
<path style=" stroke:none;fill-rule:nonzero;fill:rgb(13.72549%,9.411765%,8.235294%);fill-opacity:1;" d="M 126.308594 110.738281 C 126.640625 110.789062 126.96875 110.835938 127.308594 110.894531 C 141.375 113.371094 152.933594 123.59375 157.953125 136.761719 C 157.34375 136.585938 156.726562 136.425781 156.09375 136.285156 C 155.496094 136.148438 154.875 136.15625 154.28125 136.308594 C 154.066406 136.21875 153.859375 136.121094 153.648438 136.03125 C 149.074219 125.589844 139.929688 117.851562 128.878906 115.058594 C 127.960938 113.648438 127.101562 112.210938 126.308594 110.738281 Z M 126.308594 110.738281 "/>
<path style=" stroke:none;fill-rule:nonzero;fill:rgb(13.72549%,9.411765%,8.235294%);fill-opacity:1;" d="M 154.273438 136.308594 C 154.871094 136.15625 155.492188 136.148438 156.089844 136.285156 C 156.71875 136.425781 157.339844 136.585938 157.949219 136.761719 C 158.09375 137.136719 158.230469 137.503906 158.359375 137.878906 C 156.980469 137.410156 155.617188 136.886719 154.273438 136.308594 Z M 154.273438 136.308594 "/>
<path style=" stroke:none;fill-rule:nonzero;fill:rgb(13.72549%,9.411765%,8.235294%);fill-opacity:1;" d="M 153.824219 136.460938 C 153.972656 136.398438 154.121094 136.347656 154.273438 136.308594 C 155.609375 136.882812 156.96875 137.40625 158.359375 137.878906 C 158.480469 138.21875 158.601562 138.558594 158.710938 138.90625 C 158.9375 139.5625 158.964844 140.273438 158.789062 140.949219 C 157.585938 140.507812 156.347656 140.160156 155.089844 139.90625 C 154.730469 138.734375 154.308594 137.585938 153.824219 136.460938 Z M 153.824219 136.460938 "/>
<path style=" stroke:none;fill-rule:nonzero;fill:rgb(13.72549%,9.411765%,8.235294%);fill-opacity:1;" d="M 153.644531 136.03125 C 153.855469 136.121094 154.058594 136.21875 154.273438 136.308594 C 154.121094 136.347656 153.972656 136.398438 153.824219 136.460938 C 153.765625 136.316406 153.710938 136.171875 153.644531 136.03125 Z M 153.644531 136.03125 "/>
<path style=" stroke:none;fill-rule:nonzero;fill:rgb(13.72549%,9.411765%,8.235294%);fill-opacity:1;" d="M 151.445312 140.800781 C 151.195312 138.988281 152.160156 137.222656 153.824219 136.460938 C 154.308594 137.585938 154.730469 138.734375 155.089844 139.90625 C 156.347656 140.160156 157.585938 140.507812 158.789062 140.949219 C 157.949219 143.984375 152.699219 144.726562 151.476562 140.898438 Z M 151.445312 140.800781 "/>
<path style=" stroke:none;fill-rule:nonzero;fill:rgb(13.72549%,9.411765%,8.235294%);fill-opacity:1;" d="M 151.5 140.898438 C 152.726562 144.726562 157.976562 143.984375 158.816406 140.949219 C 162.835938 142.421875 166.429688 144.867188 169.28125 148.066406 C 166.746094 147.742188 164.234375 147.273438 161.753906 146.660156 C 159.410156 145.160156 156.816406 144.089844 154.09375 143.5 C 152.707031 143.277344 151.628906 142.171875 151.445312 140.78125 Z M 151.5 140.898438 "/>
<path style=" stroke:none;fill-rule:nonzero;fill:rgb(13.72549%,9.411765%,8.235294%);fill-opacity:1;" d="M 153.644531 136.03125 C 153.710938 136.171875 153.765625 136.316406 153.824219 136.460938 C 152.160156 137.222656 151.195312 138.988281 151.445312 140.800781 C 150.554688 138.050781 149.3125 135.429688 147.75 133 C 149.65625 134.121094 151.625 135.132812 153.644531 136.03125 Z M 153.644531 136.03125 "/>
<path style=" stroke:none;fill-rule:nonzero;fill:rgb(13.72549%,9.411765%,8.235294%);fill-opacity:1;" d="M 128.875 115.058594 C 139.925781 117.851562 149.066406 125.589844 153.644531 136.03125 C 151.625 135.144531 149.65625 134.140625 147.75 133.03125 C 144.128906 127.414062 138.914062 123.007812 132.773438 120.371094 C 131.375 118.675781 130.074219 116.902344 128.875 115.058594 Z M 128.875 115.058594 "/>
<path style=" stroke:none;fill-rule:nonzero;fill:rgb(13.72549%,9.411765%,8.235294%);fill-opacity:1;" d="M 118.5 55.628906 C 121.066406 54.523438 125.433594 56.445312 124 59.863281 C 123.648438 60.699219 123.324219 61.539062 123 62.363281 L 122.265625 62.089844 L 116.765625 57.855469 L 116.195312 56.664062 C 116.941406 56.308594 117.710938 55.964844 118.5 55.628906 Z M 118.5 55.628906 "/>
<path style=" stroke:none;fill-rule:nonzero;fill:rgb(13.72549%,9.411765%,8.235294%);fill-opacity:1;" d="M 122.261719 62.109375 L 122.996094 62.386719 C 117.148438 78.238281 118.355469 95.832031 126.308594 110.738281 C 123.488281 110.3125 120.628906 110.175781 117.78125 110.339844 C 111.519531 96.621094 110.132812 81.175781 113.84375 66.558594 C 116.53125 64.859375 119.34375 63.371094 122.261719 62.109375 Z M 122.261719 62.109375 "/>
<path style=" stroke:none;fill-rule:nonzero;fill:rgb(13.72549%,9.411765%,8.235294%);fill-opacity:1;" d="M 119.878906 113.953125 C 122.914062 113.949219 125.9375 114.320312 128.878906 115.058594 C 130.078125 116.894531 131.382812 118.660156 132.78125 120.351562 C 130.601562 119.414062 128.328125 118.710938 126 118.253906 C 124.582031 117.980469 123.144531 117.800781 121.699219 117.726562 C 120.941406 116.492188 120.222656 115.238281 119.546875 113.960938 Z M 119.878906 113.953125 "/>
<path style=" stroke:none;fill-rule:nonzero;fill:rgb(13.72549%,9.411765%,8.235294%);fill-opacity:1;" d="M 89.191406 130.414062 C 95.949219 120.226562 107.324219 114.0625 119.550781 113.960938 C 120.214844 115.238281 120.933594 116.492188 121.703125 117.726562 C 110.078125 117.179688 98.996094 122.695312 92.425781 132.304688 C 91.789062 133.289062 90.761719 133.957031 89.605469 134.144531 C 89.164062 132.839844 88.769531 131.515625 88.425781 130.179688 C 88.679688 130.253906 88.933594 130.328125 89.191406 130.414062 Z M 89.191406 130.414062 "/>
<path style=" stroke:none;fill-rule:nonzero;fill:rgb(13.72549%,9.411765%,8.235294%);fill-opacity:1;" d="M 117.78125 110.339844 C 120.628906 110.175781 123.488281 110.3125 126.308594 110.738281 C 127.101562 112.210938 127.953125 113.648438 128.875 115.058594 C 125.933594 114.320312 122.910156 113.949219 119.875 113.953125 L 119.546875 113.953125 C 118.921875 112.769531 118.335938 111.558594 117.78125 110.339844 Z M 117.78125 110.339844 "/>
<path style=" stroke:none;fill-rule:nonzero;fill:rgb(13.72549%,9.411765%,8.235294%);fill-opacity:1;" d="M 117.78125 110.339844 C 118.335938 111.558594 118.921875 112.769531 119.550781 113.960938 C 107.324219 114.0625 95.949219 120.226562 89.191406 130.414062 C 88.933594 130.328125 88.691406 130.253906 88.425781 130.179688 C 88.214844 129.375 88.023438 128.5625 87.84375 127.75 L 90.183594 126.796875 C 89.359375 126.546875 88.535156 126.324219 87.683594 126.128906 C 94.980469 116.785156 105.945312 111.03125 117.78125 110.339844 Z M 117.78125 110.339844 "/>
<path style=" stroke:none;fill-rule:nonzero;fill:rgb(13.72549%,9.411765%,8.235294%);fill-opacity:1;" d="M 116.179688 56.683594 L 116.75 57.875 C 115.574219 60.695312 114.601562 63.597656 113.84375 66.558594 C 101.433594 74.316406 92.382812 86.449219 88.484375 100.558594 C 86.25 108.878906 85.914062 117.59375 87.511719 126.058594 C 84.925781 125.476562 82.28125 125.183594 79.628906 125.191406 C 75.519531 96.8125 90.324219 69.050781 116.179688 56.65625 Z M 116.179688 56.683594 "/>
<path style=" stroke:none;fill-rule:nonzero;fill:rgb(95.686275%,92.54902%,56.470588%);fill-opacity:1;" d="M 117.78125 110.339844 C 105.949219 111.039062 94.992188 116.789062 87.699219 126.128906 L 87.511719 126.089844 C 85.914062 117.625 86.25 108.910156 88.484375 100.589844 C 92.382812 86.480469 101.433594 74.347656 113.84375 66.589844 C 110.140625 81.195312 111.527344 96.628906 117.78125 110.339844 Z M 117.78125 110.339844 "/>
<path style=" stroke:none;fill-rule:nonzero;fill:rgb(13.72549%,9.411765%,8.235294%);fill-opacity:1;" d="M 88.425781 130.179688 C 88.769531 131.515625 89.164062 132.839844 89.605469 134.144531 C 89.128906 134.207031 88.648438 134.167969 88.191406 134.03125 C 85.917969 133.328125 83.566406 132.910156 81.191406 132.785156 C 80.855469 131.503906 80.554688 130.214844 80.28125 128.914062 C 83.039062 128.972656 85.777344 129.398438 88.425781 130.179688 Z M 88.425781 130.179688 "/>
<path style=" stroke:none;fill-rule:nonzero;fill:rgb(13.72549%,9.411765%,8.235294%);fill-opacity:1;" d="M 87.699219 126.128906 C 88.535156 126.324219 89.359375 126.546875 90.199219 126.796875 L 87.859375 127.75 C 87.753906 127.25 87.660156 126.800781 87.570312 126.324219 Z M 87.699219 126.128906 "/>
<path style=" stroke:none;fill-rule:nonzero;fill:rgb(13.72549%,9.411765%,8.235294%);fill-opacity:1;" d="M 87.554688 126.324219 C 87.644531 126.824219 87.738281 127.273438 87.84375 127.75 L 85.949219 128.5 C 86.464844 127.757812 87 127.03125 87.554688 126.324219 Z M 87.554688 126.324219 "/>
<path style=" stroke:none;fill-rule:nonzero;fill:rgb(13.72549%,9.411765%,8.235294%);fill-opacity:1;" d="M 87.554688 126.324219 L 87.511719 126.089844 L 87.699219 126.128906 Z M 87.554688 126.324219 "/>
<path style=" stroke:none;fill-rule:nonzero;fill:rgb(13.72549%,9.411765%,8.235294%);fill-opacity:1;" d="M 87.554688 126.324219 C 87 127.035156 86.464844 127.765625 85.949219 128.519531 L 87.84375 127.75 C 88.019531 128.5625 88.210938 129.375 88.425781 130.179688 C 85.773438 129.398438 83.03125 128.972656 80.269531 128.914062 C 80.023438 127.691406 79.808594 126.453125 79.628906 125.21875 C 82.277344 125.214844 84.917969 125.507812 87.5 126.089844 Z M 87.554688 126.324219 "/>
<path style=" stroke:none;fill-rule:nonzero;fill:rgb(13.72549%,9.411765%,8.235294%);fill-opacity:1;" d="M 48.5 160 C 48.507812 142.828125 62.425781 128.910156 79.601562 128.898438 C 79.824219 128.898438 80.046875 128.898438 80.269531 128.898438 C 80.535156 130.199219 80.835938 131.488281 81.179688 132.769531 C 72.179688 132.300781 63.238281 136.089844 57.644531 143.625 C 51.457031 151.929688 50.484375 163.011719 55.128906 172.269531 C 59.777344 181.523438 69.246094 187.367188 79.601562 187.371094 C 82.34375 187.394531 85.101562 187.371094 87.828125 187.371094 L 145.558594 187.371094 C 149.789062 187.371094 153.859375 187.449219 157.921875 185.894531 C 162.429688 184.148438 166.230469 180.953125 168.726562 176.808594 C 170.570312 176.078125 172.375 175.257812 174.140625 174.355469 C 170.347656 184.441406 160.695312 191.121094 149.921875 191.121094 L 79.601562 191.121094 C 62.417969 191.113281 48.496094 177.179688 48.5 160 Z M 48.5 160 "/>
<path style=" stroke:none;fill-rule:nonzero;fill:rgb(13.72549%,9.411765%,8.235294%);fill-opacity:1;" d="M 48.5 160 C 48.5 177.1875 62.433594 191.117188 79.621094 191.113281 L 149.921875 191.113281 C 160.695312 191.117188 170.347656 184.4375 174.140625 174.351562 C 175.738281 173.539062 177.296875 172.667969 178.816406 171.730469 C 176.421875 181.925781 168.910156 190.152344 158.96875 193.453125 C 154.230469 195.003906 149.375 194.863281 144.46875 194.863281 L 82.753906 194.863281 C 76.421875 194.863281 70.375 194.171875 64.53125 191.433594 C 54.328125 186.539062 47.136719 176.996094 45.238281 165.839844 C 43.40625 154.433594 47.179688 142.609375 55.648438 134.660156 C 62.15625 128.574219 70.738281 125.191406 79.648438 125.199219 C 79.828125 126.433594 80.046875 127.671875 80.289062 128.894531 C 80.066406 128.894531 79.84375 128.894531 79.621094 128.894531 C 62.4375 128.890625 48.503906 142.816406 48.5 160 Z M 48.5 160 "/>
</g>
</svg>
